<?xml version="1.0" encoding="utf-8"?><svg xmlns="http://www.w3.org/2000/svg" xmlns:xlink="http://www.w3.org/1999/xlink"><symbol viewBox="0 0 960 1024" id="alarmclock" xmlns="http://www.w3.org/2000/svg"><path d="M480 64C232.96 64 32 264.96 32 512s200.96 448 448 448 448-200.96 448-448S727.04 64 480 64zm0 864C250.624 928 64 741.376 64 512S250.624 96 480 96s416 186.624 416 416-186.624 416-416 416zM240 0C107.648 0 0 107.648 0 240v33.984c0 8.832 7.168 16 16 16s16-7.136 16-16V240c0-114.688 93.312-208 208-208h28c8.832 0 16-7.168 16-16s-7.168-16-16-16h-28zm476 0h-28c-8.832 0-16 7.168-16 16s7.168 16 16 16h28c114.688 0 208 93.312 208 208v33.984c0 8.832 7.168 16 16 16s16-7.168 16-16V240C956 107.648 848.352 0 716 0zM480 521.376V298.208c0-8.832-7.168-16-16-16s-16 7.168-16 16V528c0 4.256 1.696 8.32 4.672 11.328L609.92 696.576c3.136 3.136 7.232 4.672 11.328 4.672s8.192-1.568 11.328-4.672c6.24-6.24 6.24-16.384 0-22.624L480 521.376zM60.8 1017.6l96-128c5.28-7.072 3.84-17.088-3.232-22.4-7.04-5.248-17.056-3.84-22.4 3.232l-96 128c-5.28 7.072-3.84 17.088 3.232 22.4A16.055 16.055 0 0 0 48 1024c4.832 0 9.664-2.208 12.8-6.4zm768-147.2c-5.344-7.104-15.328-8.48-22.4-3.232-7.072 5.312-8.512 15.328-3.232 22.4l96 128a16.029 16.029 0 0 0 12.8 6.4c3.328 0 6.72-1.024 9.6-3.2 7.072-5.312 8.512-15.328 3.232-22.4l-96-127.968z"/></symbol><symbol viewBox="0 0 168 448" id="angle" xmlns="http://www.w3.org/2000/svg"><path d="M156.75 136c0 2-1 4.25-2.5 5.75L56 240l98.25 98.25c1.5 1.5 2.5 3.75 2.5 5.75s-1 4.25-2.5 5.75l-12.5 12.5c-1.5 1.5-3.75 2.5-5.75 2.5s-4.25-1-5.75-2.5l-116.5-116.5c-1.5-1.5-2.5-3.75-2.5-5.75s1-4.25 2.5-5.75l116.5-116.5c1.5-1.5 3.75-2.5 5.75-2.5s4.25 1 5.75 2.5l12.5 12.5c1.5 1.5 2.5 3.5 2.5 5.75z"/></symbol><symbol viewBox="0 0 288 448" id="angle-up" xmlns="http://www.w3.org/2000/svg"><path d="M268.75 296c0 2-1 4.25-2.5 5.75l-12.5 12.5c-1.5 1.5-3.5 2.5-5.75 2.5-2 0-4.25-1-5.75-2.5L144 216l-98.25 98.25c-1.5 1.5-3.75 2.5-5.75 2.5s-4.25-1-5.75-2.5l-12.5-12.5c-1.5-1.5-2.5-3.75-2.5-5.75s1-4.25 2.5-5.75l116.5-116.5c1.5-1.5 3.75-2.5 5.75-2.5s4.25 1 5.75 2.5l116.5 116.5c1.5 1.5 2.5 3.75 2.5 5.75z"/></symbol><symbol viewBox="0 0 640 640" id="arrow-right" xmlns="http://www.w3.org/2000/svg"><path d="M517.504 288L323.232 93.728 368.48 48.48 640 320 368.48 591.52l-45.248-45.248L517.504 352H0v-64z"/></symbol><symbol viewBox="0 0 1024 1024" id="award" xmlns="http://www.w3.org/2000/svg"><path d="M192 352v480.04c0 17.924 14.434 31.96 32.239 31.96H672V704.189c0-35.82 28.624-64.189 63.933-64.189H864V352H192zm0-32h672v-95.781C864 206.398 849.691 192 832.04 192H223.96c-17.924 0-31.96 14.309-31.96 31.96V320zm496 576H224.003C188.655 896 160 867.148 160 831.972V224.027c0-35.361 28.852-64.028 64.028-64.028h607.945c35.361 0 64.028 28.624 64.028 63.81v448.19l-192 224h-16zm16-48l150.398-176H735.895c-17.475 0-31.896 14.453-31.896 32.281V848zM459.314 722.729l248.902-248.902-22.627-22.627-226.274 226.274L339.55 557.709l-22.627 22.627 142.392 142.392z"/></symbol><symbol viewBox="0 0 1024 1024" id="award-empty" xmlns="http://www.w3.org/2000/svg"><path d="M512.231 639.999l-140.984 367.275-55.22-124.027L192 938.467l139.295-362.876C266.336 522.785 224.833 442.239 224.833 352c0-159.058 128.942-288 288-288s288 128.942 288 288c0 90.239-41.503 170.785-106.462 223.591l139.295 362.876-124.027-55.22-55.22 124.027-140.984-367.275-.603.001-.603-.001zm-33.509-1.998c-43.999-5.192-84.96-20.303-120.587-43.034l-108.737 283.27 82.685-36.814 36.814 82.685 109.826-286.107zm188.811-43.034c-35.627 22.731-76.589 37.842-120.587 43.034l109.826 286.107 36.814-82.685 82.685 36.814-108.737-283.27zM512.834 608c141.385 0 256-114.615 256-256s-114.615-256-256-256-256 114.615-256 256 114.615 256 256 256zm0-64c-106.039 0-192-85.961-192-192s85.961-192 192-192 192 85.961 192 192-85.961 192-192 192zm0-32c88.366 0 160-71.634 160-160s-71.634-160-160-160-160 71.634-160 160 71.634 160 160 160z"/></symbol><symbol viewBox="0 0 448 448" id="bell-o" xmlns="http://www.w3.org/2000/svg"><path d="M228 424c0-2.25-1.75-4-4-4-19.75 0-36-16.25-36-36 0-2.25-1.75-4-4-4s-4 1.75-4 4c0 24.25 19.75 44 44 44 2.25 0 4-1.75 4-4zM61.5 352h325C341.75 301.5 320 233 320 144c0-32.25-30.5-80-96-80s-96 47.75-96 80c0 89-21.75 157.5-66.5 208zm370.5 0c0 17.5-14.5 32-32 32H288c0 35.25-28.75 64-64 64s-64-28.75-64-64H48c-17.5 0-32-14.5-32-32 37-31.25 80-87.25 80-208 0-48 39.75-100.5 106-110.25-1.25-3-2-6.25-2-9.75 0-13.25 10.75-24 24-24s24 10.75 24 24c0 3.5-.75 6.75-2 9.75C312.25 43.5 352 96 352 144c0 120.75 43 176.75 80 208z"/></symbol><symbol viewBox="0 0 512 512" id="bin" xmlns="http://www.w3.org/2000/svg"><path d="M64 160v320c0 17.6 14.4 32 32 32h288c17.6 0 32-14.4 32-32V160H64zm96 288h-32V224h32v224zm64 0h-32V224h32v224zm64 0h-32V224h32v224zm64 0h-32V224h32v224zm72-384H320V24c0-13.2-10.8-24-24-24H184c-13.2 0-24 10.8-24 24v40H56c-13.2 0-24 10.8-24 24v40h416V88c0-13.2-10.8-24-24-24zm-136 0h-96V32.401h96V64z"/></symbol><symbol viewBox="0 0 512 512" id="blocked" xmlns="http://www.w3.org/2000/svg"><path d="M437.02 74.98C388.667 26.629 324.38 0 256 0S123.333 26.629 74.98 74.98C26.629 123.333 0 187.62 0 256s26.629 132.667 74.98 181.02C123.333 485.371 187.62 512 256 512s132.667-26.629 181.02-74.98C485.371 388.667 512 324.38 512 256s-26.629-132.667-74.98-181.02zM448 256c0 41.407-13.177 79.794-35.556 111.19L144.811 99.556C176.207 77.177 214.593 64 256 64c105.869 0 192 86.131 192 192zm-384 0c0-41.407 13.177-79.793 35.556-111.189l267.635 267.634C335.794 434.823 297.407 448 256 448c-105.869 0-192-86.131-192-192z"/></symbol><symbol viewBox="0 0 448 448" id="briefcase" xmlns="http://www.w3.org/2000/svg"><path d="M160 64h128V32H160v32zm288 160v120c0 22-18 40-40 40H40c-22 0-40-18-40-40V224h168v40c0 8.75 7.25 16 16 16h80c8.75 0 16-7.25 16-16v-40h168zm-192 0v32h-64v-32h64zm192-120v96H0v-96c0-22 18-40 40-40h88V24c0-13.25 10.75-24 24-24h144c13.25 0 24 10.75 24 24v40h88c22 0 40 18 40 40z"/></symbol><symbol viewBox="0 0 42 32" id="chat" xmlns="http://www.w3.org/2000/svg"><path d="M35.652 14.023a.5.5 0 0 0-.303.953C39.257 16.221 41 18.078 41 21c0 2.599-2.371 4.616-3.783 5.588A.5.5 0 0 0 37 27v3.823a7.953 7.953 0 0 1-3.126-2.155.505.505 0 0 0-.468-.159c-.285.055-.576.133-.871.212-.51.137-1.036.279-1.535.279-2.568 0-4.366-.552-6.204-1.903a.5.5 0 0 0-.593.806C26.23 29.393 28.199 30 31 30c.631 0 1.223-.159 1.795-.313.178-.049.355-.097.53-.138 1.869 1.974 3.983 2.423 4.075 2.441a.495.495 0 0 0 .416-.103A.498.498 0 0 0 38 31.5v-4.239c2.582-1.841 4-4.057 4-6.261 0-3.381-2.017-5.598-6.348-6.977zM33 13.5C33 5.804 25.982 0 16.677 0 7.325 0 0 5.931 0 13.502c0 4.539 3.211 7.791 6 9.759v6.636a.502.502 0 0 0 .705.456c.146-.065 3.559-1.616 6.479-4.809 1.265.235 2.696.461 3.994.461C26.641 26.005 33 20.979 33 13.5zM17.177 25.005c-1.31 0-2.799-.251-4.083-.496a.507.507 0 0 0-.468.159C10.576 26.98 8.167 28.449 7 29.082V23a.5.5 0 0 0-.217-.412C4.145 20.773 1 17.725 1 13.502 1 6.491 7.886 1 16.677 1 25.413 1 32 6.374 32 13.5c0 6.882-5.957 11.505-14.823 11.505zM16.5 11.5c-1.103 0-2 .897-2 2s.897 2 2 2 2-.897 2-2-.897-2-2-2zm0 3a1.001 1.001 0 0 1 0-2 1.001 1.001 0 0 1 0 2zm7-3c-1.103 0-2 .897-2 2s.897 2 2 2 2-.897 2-2-.897-2-2-2zm0 3a1.001 1.001 0 0 1 0-2 1.001 1.001 0 0 1 0 2zm-14-2.905c-1.103 0-2 .897-2 2s.897 2 2 2 2-.897 2-2-.897-2-2-2zm0 3a1.001 1.001 0 0 1 0-2 1.001 1.001 0 0 1 0 2z"/></symbol><symbol viewBox="0 0 24 24" id="check" xmlns="http://www.w3.org/2000/svg"><path d="M20.7 5.3c-.4-.4-1-.4-1.4 0L9 15.6l-4.3-4.3c-.4-.4-1-.4-1.4 0s-.4 1 0 1.4l5 5c.2.2.4.3.7.3s.5-.1.7-.3l11-11c.4-.4.4-1 0-1.4z"/></symbol><symbol viewBox="0 0 32 32" id="checkmark" xmlns="http://www.w3.org/2000/svg"><path d="M27 4L12 19l-7-7-5 5 12 12L32 9z"/></symbol><symbol viewBox="0 0 1024 1024" id="clip" xmlns="http://www.w3.org/2000/svg"><path d="M939.616 148.384c112.512 112.448 112.512 294.816 0 407.264L588.672 906.624c-12.512 12.544-32.736 12.544-45.248 0-12.576-12.512-12.576-32.704 0-45.248l346.432-346.464c87.488-87.488 87.488-229.248-.064-316.768-87.36-87.488-229.248-87.488-316.736 0L110.752 655.008c-62.496 62.464-62.496 163.776 0 226.24 62.496 62.496 163.744 62.496 226.24 0l466.88-461.344c37.44-37.44 37.44-98.336 0-135.776-37.44-37.408-98.304-37.408-135.744 0L317.12 635.136c-12.512 12.512-32.736 12.512-45.248 0-12.512-12.544-12.512-32.736 0-45.28L622.848 238.88c62.432-62.464 163.744-62.464 226.24 0 62.496 62.496 62.496 163.776 0 226.272l-466.88 461.376c-87.296 87.328-229.408 87.328-316.736 0s-87.328-229.472 0-316.8l466.88-461.344c112.448-112.512 294.816-112.512 407.264 0z"/></symbol><symbol viewBox="0 0 24 24" id="close" xmlns="http://www.w3.org/2000/svg"><path d="M18.984 6.422L13.406 12l5.578 5.578-1.406 1.406L12 13.406l-5.578 5.578-1.406-1.406L10.594 12 5.016 6.422l1.406-1.406L12 10.594l5.578-5.578z"/></symbol><symbol viewBox="0 0 448 448" id="comment" xmlns="http://www.w3.org/2000/svg"><path d="M176 96c-78 0-144 44-144 96 0 27.5 18.5 54 50.5 72.5l24.25 14-8.75 21c5.25-3 10.5-6.25 15.5-9.75l11-7.75 13.25 2.5c12.5 2.25 25.25 3.5 38.25 3.5 78 0 144-44 144-96s-66-96-144-96zm0-32c97.25 0 176 57.25 176 128s-78.75 128-176 128c-15.25 0-30-1.5-44-4-20.75 14.75-44.25 25.5-69.5 32-6.75 1.75-14 3-21.5 4h-.75c-3.75 0-7.25-3-8-7.25-1-4.75 2.25-7.75 5-11C47 322.75 58 313 66.5 292.25 26 268.75 0 232.5 0 192 0 121.25 78.75 64 176 64zm205.5 292.25c8.5 20.75 19.5 30.5 29.25 41.5 2.75 3.25 6 6.25 5 11-1 4.5-4.75 7.75-8.75 7.25-7.5-1-14.75-2.25-21.5-4-25.25-6.5-48.75-17.25-69.5-32-14 2.5-28.75 4-44 4-45.25 0-86.75-12.5-118-33 7.25.5 14.75 1 22 1 53.75 0 104.5-15.5 143.25-43.5C361 278 384 236.75 384 192c0-13-2-25.75-5.75-38C420.5 177.25 448 214.25 448 256c0 40.75-26 76.75-66.5 100.25z"/></symbol><symbol viewBox="0 0 32 32" id="compass" xmlns="http://www.w3.org/2000/svg"><path d="M17 32a1 1 0 0 1-1-1V16H1a1 1 0 0 1-.423-1.906l30-14a1 1 0 0 1 1.329 1.329l-14 30A1 1 0 0 1 17 32zM5.508 14H17a1 1 0 0 1 1 1v11.492L28.931 3.069 5.508 14z"/></symbol><symbol viewBox="0 0 32 32" id="exit" xmlns="http://www.w3.org/2000/svg"><path d="M24 20v-4H14v-4h10V8l6 6zm-2-2v8H12v6L0 26V0h22v10h-2V2H4l8 4v18h8v-6z"/></symbol><symbol viewBox="0 0 512 512" id="eye" xmlns="http://www.w3.org/2000/svg"><path d="M256 96C144.341 96 47.559 161.021 0 256c47.559 94.979 144.341 160 256 160 111.656 0 208.438-65.021 256-160-47.558-94.979-144.344-160-256-160zm126.225 84.852c30.081 19.187 55.571 44.887 74.717 75.148-19.146 30.261-44.637 55.961-74.718 75.148C344.427 355.257 300.779 368 256 368c-44.78 0-88.429-12.743-126.226-36.852C99.695 311.962 74.205 286.262 55.058 256c19.146-30.262 44.637-55.962 74.717-75.148a233.42 233.42 0 0 1 5.93-3.65C130.725 190.866 128 205.613 128 221c0 70.691 57.308 128 128 128s128-57.309 128-128c0-15.387-2.726-30.134-7.704-43.799a240.69 240.69 0 0 1 5.929 3.651zM256 208c0 26.51-21.49 48-48 48s-48-21.49-48-48 21.49-48 48-48 48 21.491 48 48z"/></symbol><symbol viewBox="0 0 32 32" id="fb" xmlns="http://www.w3.org/2000/svg"><path d="M19 6h5V0h-5c-3.86 0-7 3.14-7 7v3H8v6h4v16h6V16h5l1-6h-6V7c0-.542.458-1 1-1z"/></symbol><symbol viewBox="0 0 32 32" id="file" xmlns="http://www.w3.org/2000/svg"><path d="M20.938 4.031H7v23.938h10v-2H9V6.031h10v3h4v11h2V7.969l-4.062-3.938zm2.062 18h-2v2h-2v2h2v1.938h2v-2h2v-1.938h-2v-2z"/></symbol><symbol viewBox="0 0 1088 1024" id="files" xmlns="http://www.w3.org/2000/svg"><path d="M48.384 896H624c26.464 0 48-21.536 48-48V240c0-.736-.32-1.376-.416-2.08s-.224-1.312-.416-1.984c-.736-2.752-1.92-5.312-3.904-7.264L443.296 4.704c-1.952-1.952-4.512-3.136-7.264-3.904-.672-.192-1.28-.32-1.984-.416C433.376.32 432.736 0 432 0H48.192C21.632 0 0 21.536 0 48v800c0 26.464 21.696 48 48.384 48zM448 54.624L617.376 224H464c-8.8 0-16-7.168-16-16V54.624zM32 48c0-8.832 7.264-16 16.192-16H416v176c0 26.464 21.536 48 48 48h176v592c0 8.832-7.2 16-16 16H48.384C39.328 864 32 856.832 32 848V48zm112 336h384c8.832 0 16-7.168 16-16s-7.168-16-16-16H144c-8.832 0-16 7.168-16 16s7.168 16 16 16zm0 128h384c8.832 0 16-7.168 16-16s-7.168-16-16-16H144c-8.832 0-16 7.168-16 16s7.168 16 16 16zm0-256h160c8.832 0 16-7.168 16-16s-7.168-16-16-16H144c-8.832 0-16 7.168-16 16s7.168 16 16 16zm0 384h384c8.832 0 16-7.168 16-16s-7.168-16-16-16H144c-8.832 0-16 7.168-16 16s7.168 16 16 16zm0 128h384c8.832 0 16-7.168 16-16s-7.168-16-16-16H144c-8.832 0-16 7.168-16 16s7.168 16 16 16zm544-608h144v176c0 26.464 21.536 48 48 48h176v592c0 8.832-7.2 16-16 16H464.384c-9.056 0-16.384-7.168-16.384-16v-32c0-8.832-7.168-16-16-16s-16 7.168-16 16v32c0 26.464 21.696 48 48.384 48H1040c26.464 0 48-21.536 48-48V368c0-.736-.32-1.376-.416-2.08s-.224-1.312-.416-1.984c-.736-2.752-1.92-5.312-3.904-7.264L859.296 132.704c-1.952-1.984-4.544-3.168-7.296-3.904-.672-.192-1.248-.288-1.952-.384-.672-.096-1.312-.416-2.048-.416H688c-8.832 0-16 7.168-16 16s7.168 16 16 16zm192 192c-8.8 0-16-7.168-16-16V182.624L1033.376 352H880zM752 512h192c8.832 0 16-7.168 16-16s-7.168-16-16-16H752c-8.832 0-16 7.168-16 16s7.168 16 16 16zm0 128h192c8.832 0 16-7.168 16-16s-7.168-16-16-16H752c-8.832 0-16 7.168-16 16s7.168 16 16 16zm0 128h192c8.832 0 16-7.168 16-16s-7.168-16-16-16H752c-8.832 0-16 7.168-16 16s7.168 16 16 16zm0 128h192c8.832 0 16-7.168 16-16s-7.168-16-16-16H752c-8.832 0-16 7.168-16 16s7.168 16 16 16z"/></symbol><symbol viewBox="0 0 32 32" id="filter" xmlns="http://www.w3.org/2000/svg"><path d="M16 0C7.163 0 0 2.239 0 5v3l12 12v10c0 1.105 1.791 2 4 2s4-.895 4-2V20L32 8V5c0-2.761-7.163-5-16-5zM2.95 4.338c.748-.427 1.799-.832 3.04-1.171C8.738 2.415 12.293 2 16.001 2s7.262.414 10.011 1.167c1.241.34 2.292.745 3.04 1.171.494.281.76.519.884.662-.124.142-.391.38-.884.662-.748.427-1.8.832-3.04 1.171C23.264 7.585 19.709 8 16.001 8S8.739 7.586 5.99 6.833c-1.24-.34-2.292-.745-3.04-1.171-.494-.282-.76-.519-.884-.662.124-.142.391-.38.884-.662z"/></symbol><symbol viewBox="0 0 1024 1024" id="fire" xmlns="http://www.w3.org/2000/svg"><path d="M704 288c-1.984 85.6-66.24 157.888-66.24 157.888C637.76 286.656 512 160 512 160s-1.696 94.784-65.376 190.336C382.944 127.392 191.84 0 191.84 0 287.392 350.336 160 477.76 160 732.544 160 882.016 286.528 1024 480 1024c286.624 0 342.048-105.216 371.68-223.776C892.512 636.992 831.36 447.232 704 288zm85.632 496.672C769.056 866.88 745.824 960 480 960c-160.256 0-256-115.648-256-227.456 0-85.632 15.616-155.936 32.128-230.368 20.992-94.368 42.496-190.976 33.184-318.752 98.688 136.608 133.824 317.6 133.824 317.6s91.872-128.992 116.576-188.896C558.624 350.624 576 480 576 608c0 0 84.992-70.016 148.736-175.296 67.136 120.384 91.328 246.24 64.896 351.968zM717.824 537.44l5.952 33.12c13.312 74.176 5.856 161.856-18.944 223.424-2.496 6.24-8.512 10.016-14.816 10.016-2.016 0-4.064-.384-6.016-1.152-8.192-3.296-12.192-12.608-8.864-20.8 18.688-46.368 26.56-111.648 21.568-171.296-32.128 35.904-72.608 73.312-159.104 114.4l-16.192 7.648-5.824-16.896c-11.584-33.6-23.264-67.552-28.32-114.88-17.312 27.296-33.12 51.616-59.68 87.776l-16.256 22.144-11.264-25.088c-27.552-61.6-48.544-109.696-65.184-152C319.488 583.296 308 640.48 308 755.968c0 8.832-7.2 16-16 16-8.864 0-16-7.168-16-16 0-150.688 20-208.736 41.12-270.208l16.64-48.32 15.328 43.2c16.48 46.432 38.176 97.6 68.864 166.784 20.224-28.576 33.792-50.08 50.176-76.032l48.576-76.096v54.688c0 61.568 11.072 101.792 23.264 138.336 85.088-42.816 116.96-80.064 150.656-119.36l27.2-31.52z"/></symbol><symbol viewBox="0 0 1184 1024" id="heart" xmlns="http://www.w3.org/2000/svg"><path d="M864 0c-79.232 0-155.392 29.472-214.528 83.04-22.464 20.32-41.696 43.424-57.472 68.928-15.776-25.504-35.008-48.608-57.472-68.96C475.392 29.472 399.232 0 320 0 143.552 0 0 143.552 0 320c0 119.104 37.056 213.12 123.872 314.4 126.144 147.2 445.408 371.84 458.944 381.344 2.752 1.952 5.984 2.912 9.184 2.912s6.432-.96 9.184-2.912c13.536-9.504 332.8-234.144 458.976-381.344C1146.944 533.12 1184 439.104 1184 320c0-176.448-143.552-320-320-320zm171.872 613.6C924.032 744.032 646.112 944.512 592 983.04c-54.112-38.528-332.032-239.008-443.84-369.44C66.72 518.592 32 430.784 32 320 32 161.184 161.216 32 320 32c71.264 0 139.84 26.528 193.024 74.72 26.816 24.32 48.576 52.992 64.64 85.248 5.44 10.88 23.232 10.88 28.672 0 16.064-32.256 37.824-60.928 64.64-85.216C724.16 58.528 792.736 32 864 32c158.784 0 288 129.184 288 288 0 110.784-34.72 198.592-116.128 293.6z"/></symbol><symbol viewBox="0 0 448 448" id="heart-full" xmlns="http://www.w3.org/2000/svg"><path d="M224 416c-4 0-8-1.5-11-4.5L57 261c-2-1.75-57-52-57-112C0 75.75 44.75 32 119.5 32c43.75 0 84.75 34.5 104.5 54 19.75-19.5 60.75-54 104.5-54C403.25 32 448 75.75 448 149c0 60-55 110.25-57.25 112.5L235 411.5c-3 3-7 4.5-11 4.5z"/></symbol><symbol viewBox="0 0 448 448" id="heart-o" xmlns="http://www.w3.org/2000/svg"><path d="M416 149c0-70.25-47.5-85-87.5-85-37.25 0-79.25 40.25-92.25 55.75-6 7.25-18.5 7.25-24.5 0-13-15.5-55-55.75-92.25-55.75-40 0-87.5 14.75-87.5 85 0 45.75 46.25 88.25 46.75 88.75l145.25 140L369 238c.75-.75 47-43.25 47-89zm32 0c0 60-55 110.25-57.25 112.5L235 411.5c-3 3-7 4.5-11 4.5s-8-1.5-11-4.5L57 261c-2-1.75-57-52-57-112C0 75.75 44.75 32 119.5 32c43.75 0 84.75 34.5 104.5 54 19.75-19.5 60.75-54 104.5-54C403.25 32 448 75.75 448 149z"/></symbol><symbol viewBox="0 0 32 32" id="in" xmlns="http://www.w3.org/2000/svg"><path d="M16 2.881c4.275 0 4.781.019 6.462.094 1.563.069 2.406.331 2.969.55a4.952 4.952 0 0 1 1.837 1.194 5.015 5.015 0 0 1 1.2 1.838c.219.563.481 1.412.55 2.969.075 1.688.094 2.194.094 6.463s-.019 4.781-.094 6.463c-.069 1.563-.331 2.406-.55 2.969a4.94 4.94 0 0 1-1.194 1.837 5.02 5.02 0 0 1-1.837 1.2c-.563.219-1.413.481-2.969.55-1.688.075-2.194.094-6.463.094s-4.781-.019-6.463-.094c-1.563-.069-2.406-.331-2.969-.55a4.952 4.952 0 0 1-1.838-1.194 5.02 5.02 0 0 1-1.2-1.837c-.219-.563-.481-1.413-.55-2.969-.075-1.688-.094-2.194-.094-6.463s.019-4.781.094-6.463c.069-1.563.331-2.406.55-2.969a4.964 4.964 0 0 1 1.194-1.838 5.015 5.015 0 0 1 1.838-1.2c.563-.219 1.412-.481 2.969-.55 1.681-.075 2.188-.094 6.463-.094zM16 0c-4.344 0-4.887.019-6.594.094-1.7.075-2.869.35-3.881.744-1.056.412-1.95.956-2.837 1.85a7.833 7.833 0 0 0-1.85 2.831C.444 6.538.169 7.7.094 9.4.019 11.113 0 11.656 0 16s.019 4.887.094 6.594c.075 1.7.35 2.869.744 3.881.413 1.056.956 1.95 1.85 2.837a7.82 7.82 0 0 0 2.831 1.844c1.019.394 2.181.669 3.881.744 1.706.075 2.25.094 6.594.094s4.888-.019 6.594-.094c1.7-.075 2.869-.35 3.881-.744 1.05-.406 1.944-.956 2.831-1.844s1.438-1.781 1.844-2.831c.394-1.019.669-2.181.744-3.881.075-1.706.094-2.25.094-6.594s-.019-4.887-.094-6.594c-.075-1.7-.35-2.869-.744-3.881a7.506 7.506 0 0 0-1.831-2.844A7.82 7.82 0 0 0 26.482.843C25.463.449 24.301.174 22.601.099c-1.712-.081-2.256-.1-6.6-.1z"/><path d="M16 7.781c-4.537 0-8.219 3.681-8.219 8.219s3.681 8.219 8.219 8.219 8.219-3.681 8.219-8.219A8.221 8.221 0 0 0 16 7.781zm0 13.55a5.331 5.331 0 1 1 0-10.663 5.331 5.331 0 0 1 0 10.663zM26.462 7.456a1.919 1.919 0 1 1-3.838 0 1.919 1.919 0 0 1 3.838 0z"/></symbol><symbol viewBox="0 0 512 512" id="location" xmlns="http://www.w3.org/2000/svg"><path d="M256 0C167.634 0 96 71.634 96 160c0 160 160 352 160 352s160-192 160-352C416 71.634 344.365 0 256 0zm0 258c-54.124 0-98-43.876-98-98s43.876-98 98-98 98 43.876 98 98-43.876 98-98 98zm-62-98c0-34.242 27.758-62 62-62s62 27.758 62 62c0 34.242-27.759 62-62 62s-62-27.758-62-62z"/></symbol><symbol viewBox="0 0 512 512" id="neutral" xmlns="http://www.w3.org/2000/svg"><path d="M256 512c141.385 0 256-114.615 256-256S397.385 0 256 0 0 114.615 0 256s114.615 256 256 256zm0-464c114.875 0 208 93.125 208 208s-93.125 208-208 208S48 370.875 48 256 141.125 48 256 48zM128 160c0 17.673 14.327 32 32 32s32-14.327 32-32-14.327-32-32-32-32 14.327-32 32zm192 0c0 17.673 14.327 32 32 32s32-14.327 32-32-14.327-32-32-32-32 14.327-32 32zM192 352h128v32H192v-32z"/></symbol><symbol viewBox="0 0 20 28" id="odnoklassniki" xmlns="http://www.w3.org/2000/svg"><path d="M10 14.172c-3.906 0-7.094-3.172-7.094-7.078C2.906 3.172 6.093 0 10 0s7.094 3.172 7.094 7.094c0 3.906-3.187 7.078-7.094 7.078zm0-10.578a3.49 3.49 0 0 0-3.484 3.5c0 1.922 1.563 3.484 3.484 3.484s3.484-1.563 3.484-3.484c0-1.937-1.563-3.5-3.484-3.5zm8.172 11.437c.688 1.406-.094 2.078-1.875 3.234-1.5.953-3.563 1.328-4.922 1.469l1.141 1.125 4.172 4.172c.625.641.625 1.672 0 2.297l-.187.203a1.66 1.66 0 0 1-2.312 0 956.276 956.276 0 0 0-4.172-4.188l-4.172 4.188c-.641.625-1.672.625-2.297 0l-.187-.203a1.612 1.612 0 0 1 0-2.297c1.062-1.062 2.578-2.594 4.172-4.172l1.125-1.125c-1.344-.141-3.437-.5-4.953-1.469-1.781-1.156-2.562-1.828-1.875-3.234.406-.797 1.516-1.469 2.984-.313 0 0 1.984 1.578 5.187 1.578s5.187-1.578 5.187-1.578c1.469-1.156 2.578-.484 2.984.313z"/></symbol><symbol viewBox="0 0 28 28" id="paper-plane" xmlns="http://www.w3.org/2000/svg"><path d="M27.563.172c.328.234.484.609.422 1l-4 24a1.002 1.002 0 0 1-.984.828c-.125 0-.25-.031-.375-.078l-7.078-2.891-3.781 4.609a.971.971 0 0 1-.766.359.894.894 0 0 1-.344-.063.997.997 0 0 1-.656-.938v-5.453l13.5-16.547L6.798 19.451.626 16.92a.99.99 0 0 1-.625-.859 1.01 1.01 0 0 1 .5-.922l26-15a.966.966 0 0 1 .5-.141c.203 0 .406.063.562.172z"/></symbol><symbol viewBox="0 0 512 512" id="pen" xmlns="http://www.w3.org/2000/svg"><path d="M432 0c44.182 0 80 35.817 80 80 0 18.01-5.955 34.629-16 48l-32 32L352 48l32-32c13.371-10.045 29.989-16 48-16zM32 368L0 512l144-32 296-296L328 72 32 368zm325.789-186.211l-224 224-27.578-27.578 224-224 27.578 27.578z"/></symbol><symbol viewBox="0 0 1344 1024" id="pricetags" xmlns="http://www.w3.org/2000/svg"><path d="M1296 0H976c-22.112 0-50.368 12.032-65.504 27.84l-42.56 42.88c-6.208 6.272-6.144 16.416.128 22.624 6.208 6.208 16.416 6.176 22.624-.096l42.688-43.072C942.496 40.672 962.816 32 976 32h320c8.8 0 16 7.168 16 16v321.568c0 13.152-8.672 33.472-18.368 42.784L843.04 859.456c-6.432 6.112-17.12 5.952-23.36-.256l-84.736-84.768c-6.24-6.24-16.384-6.24-22.624 0s-6.24 16.384 0 22.624l84.736 84.768c9.408 9.376 21.888 14.112 34.368 14.112 12.224 0 24.48-4.512 33.984-13.568l450.624-447.136c15.936-15.296 27.968-43.552 27.968-65.664V48c0-26.464-21.536-48-48-48zm-46.784 160c0-35.296-28.704-64-64-64s-64 28.704-64 64 28.704 64 64 64 64-28.704 64-64zm-96 0c0-17.632 14.336-32 32-32s32 14.368 32 32-14.336 32-32 32-32-14.368-32-32zm-626.432-32c-22.112 0-50.368 12.032-65.536 27.84L13.472 608.032c-18.176 18.944-17.92 49.504.672 68.096l333.696 333.696c9.12 9.152 21.344 14.176 34.432 14.176 12.672 0 24.64-4.768 33.888-13.632l450.592-447.104c15.968-15.296 28.032-43.552 28.032-65.696V176c0-26.464-21.536-48-48-48h-320zM864 176v321.568c0 13.184-9.888 33.472-19.584 42.784L393.824 987.456c-6.24 5.92-17.28 5.792-23.328-.256L36.768 653.536c-6.24-6.272-6.368-16.96-.416-23.136L484.16 178.176C493.28 168.672 513.6 160 526.784 160h320c8.8 0 17.216 7.168 17.216 16zm-128 48c-35.296 0-64 28.704-64 64s28.704 64 64 64 64-28.704 64-64-28.704-64-64-64zm0 96c-17.664 0-32-14.368-32-32s14.336-32 32-32 32 14.368 32 32-14.336 32-32 32z"/></symbol><symbol viewBox="0 0 1152 1024" id="profile" xmlns="http://www.w3.org/2000/svg"><path d="M16 1023.456c8.576 2.144 17.344-2.816 19.584-11.328 32.96-122.976 166.912-154.848 246.976-173.92 20.064-4.768 35.904-8.544 46.208-12.992 91.2-39.584 120.928-103.264 129.824-149.728 1.088-5.6-.928-11.36-5.28-15.136C405.824 619.36 365.76 557.824 340.48 487.04a15.753 15.753 0 0 0-3.296-5.472c-33.44-36.352-52.64-74.784-52.64-105.408 0-17.888 6.752-29.888 21.952-38.944a15.993 15.993 0 0 0 7.776-13.056C321.344 161.152 437.44 32.832 579.84 32c.16 0 3.264.224 3.424.224 143.104 1.984 258.464 133.056 262.592 298.368.128 4.576 2.176 8.864 5.696 11.808 10.016 8.48 14.688 19.232 14.688 33.824 0 25.632-13.664 57.152-38.432 88.704-1.184 1.504-2.08 3.232-2.688 5.056-25.6 81.152-71.552 152.8-126.016 196.64a16.052 16.052 0 0 0-5.696 15.456c8.896 46.432 38.624 110.08 129.824 149.728 10.784 4.672 27.52 8.32 48.736 12.896 79.264 17.152 211.904 45.92 244.448 167.424 1.92 7.136 8.384 11.84 15.424 11.84 1.376 0 2.752-.192 4.16-.544 8.544-2.304 13.6-11.072 11.328-19.616-37.6-140.384-187.872-172.928-268.576-190.4-18.72-4.064-34.88-7.552-42.752-11.008-59.52-25.856-96.192-65.248-109.152-117.28 55.264-47.456 101.504-120.672 127.936-202.784 28.064-36.48 43.488-74.048 43.488-106.144 0-21.408-6.912-39.264-20.608-53.216C870.048 143.648 742.08 2.432 583.264.16l-4.768-.064c-155.936.832-284.448 138.336-295.68 314.56-20.032 14.72-30.208 35.36-30.208 61.568 0 37.856 21.408 83.136 58.88 124.672 25.888 71.136 66.016 133.632 113.792 177.376-12.896 52.224-49.6 91.744-109.248 117.632-7.712 3.36-23.072 7.04-40.864 11.264-81.312 19.328-232.608 55.328-270.496 196.704-2.272 8.544 2.784 17.28 11.328 19.584z"/></symbol><symbol viewBox="0 0 512 512" id="sad" xmlns="http://www.w3.org/2000/svg"><path d="M256 512c141.385 0 256-114.615 256-256S397.385 0 256 0 0 114.615 0 256s114.615 256 256 256zm0-464c114.875 0 208 93.125 208 208s-93.125 208-208 208S48 370.875 48 256 141.125 48 256 48zM128 160c0-17.673 14.327-32 32-32s32 14.327 32 32c0 17.673-14.327 32-32 32s-32-14.327-32-32zm192 0c0-17.673 14.327-32 32-32s32 14.327 32 32c0 17.673-14.327 32-32 32s-32-14.327-32-32zM159.951 390.37l-41.164-24.698C146.768 319.137 197.745 288 256 288s109.231 31.137 137.213 77.672l-41.164 24.698C332.462 357.796 296.778 336 256 336c-40.779 0-76.462 21.796-96.049 54.37z"/></symbol><symbol viewBox="0 0 768 768" id="shield" xmlns="http://www.w3.org/2000/svg"><path d="M652.8 131.2l-256-96c-6.4-3.2-16-3.2-22.4 0l-256 96c-12.8 3.2-22.4 16-22.4 28.8v224c0 208 262.4 342.4 275.2 348.8 3.2 3.2 6.4 3.2 12.8 3.2s9.6 0 12.8-3.2C409.6 726.4 672 592 672 384V160c0-12.8-9.6-25.6-19.2-28.8zM608 384c0 144-172.8 252.8-224 284.8C332.8 640 160 531.2 160 384V182.4l224-83.2 224 83.2V384z"/></symbol><symbol viewBox="0 0 24 24" id="shield-doc" xmlns="http://www.w3.org/2000/svg"><path d="M20.4 4.1l-8-3c-.2-.1-.5-.1-.7 0l-8 3c-.4.1-.7.5-.7.9v7c0 6.5 8.2 10.7 8.6 10.9.1.1.2.1.4.1s.3 0 .4-.1c.4-.2 8.6-4.4 8.6-10.9V5c0-.4-.3-.8-.6-.9zM19 12c0 4.5-5.4 7.9-7 8.9-1.6-.9-7-4.3-7-8.9V5.7l7-2.6 7 2.6V12z"/><path d="M16.3 6.8L10.4 13l-2.8-2.9-2 2.1 4.7 5 7.9-8.3-1.9-2.1z"/></symbol><symbol viewBox="0 0 512 512" id="smile" xmlns="http://www.w3.org/2000/svg"><path d="M256 512c141.385 0 256-114.615 256-256S397.385 0 256 0 0 114.615 0 256s114.615 256 256 256zm0-464c114.875 0 208 93.125 208 208s-93.125 208-208 208S48 370.875 48 256 141.125 48 256 48zM128 160c0-17.673 14.327-32 32-32s32 14.327 32 32c0 17.673-14.327 32-32 32s-32-14.327-32-32zm192 0c0-17.673 14.327-32 32-32s32 14.327 32 32c0 17.673-14.327 32-32 32s-32-14.327-32-32zm32.049 153.63l41.164 24.698C365.232 384.863 314.255 416 256 416s-109.232-31.137-137.213-77.672l41.164-24.698C179.538 346.204 215.222 368 256 368s76.462-21.796 96.049-54.37z"/></symbol><symbol viewBox="0 0 32 32" id="star-empty" xmlns="http://www.w3.org/2000/svg"><path d="M32 12.408l-11.056-1.607L16 .783l-4.944 10.018L0 12.408l8 7.798-1.889 11.011L16 26.018l9.889 5.199L24 20.206l8-7.798zM16 23.547l-6.983 3.671 1.334-7.776-5.65-5.507 7.808-1.134 3.492-7.075 3.492 7.075 7.807 1.134-5.65 5.507 1.334 7.776-6.983-3.671z"/></symbol><symbol viewBox="0 0 32 32" id="star-full" xmlns="http://www.w3.org/2000/svg"><path d="M32 12.408l-11.056-1.607L16 .783l-4.944 10.018L0 12.408l8 7.798-1.889 11.011L16 26.018l9.889 5.199L24 20.206l8-7.798z"/></symbol><symbol viewBox="0 0 24 28" id="thumbs-o-down" xmlns="http://www.w3.org/2000/svg"><path d="M4 7c0-.547-.453-1-1-1s-1 .453-1 1 .453 1 1 1 1-.453 1-1zm18 9c0-.578-.438-1.984-1.172-2 .328-.375.547-1.109.547-1.609 0-.734-.297-1.359-.828-1.859.187-.328.281-.703.281-1.078 0-.719-.359-1.609-1.016-1.969.047-.281.078-.578.078-.875 0-1.828-1.156-2.609-2.891-2.609h-2c-1.844 0-3.625.547-5.344 1.141-.844.297-2.281.859-3.156.859h-.5v10h.5c1.234 0 3.094 2.672 3.797 3.578.391.484.766.969 1.203 1.422 1.516 1.594 1 3.984 2 5 2.141 0 2.5-1.172 2.5-3 0-1.844-1.5-3.172-1.5-5h5.5c1.047 0 2-.938 2-2zm2 .016C24 18.172 22.156 20 20 20h-2.75c.469.969.75 1.906.75 3 0 1.031-.063 1.969-.547 2.906C16.687 27.422 15.125 28 13.5 28a2.042 2.042 0 0 1-1.406-.578c-1.563-1.531-1.078-4-2-5.016a25.479 25.479 0 0 1-1.672-1.984c-.469-.609-1.531-2.016-2.141-2.422H2c-1.109 0-2-.891-2-2V6c0-1.109.891-2 2-2h4.5c.438 0 1.703-.469 2.156-.625C10.906 2.594 12.859 2 15.265 2h1.75c2.844 0 4.891 1.687 4.875 4.609v.078c.609.781.938 1.781.938 2.781 0 .219-.016.453-.047.672.391.688.594 1.469.594 2.25 0 .359-.047.734-.141 1.078A4.6 4.6 0 0 1 24 16.015z"/></symbol><symbol viewBox="0 0 24 28" id="thumbs-o-up" xmlns="http://www.w3.org/2000/svg"><path d="M4 21c0-.547-.453-1-1-1s-1 .453-1 1 .453 1 1 1 1-.453 1-1zm18-9c0-1.062-.953-2-2-2h-5.5c0-1.828 1.5-3.156 1.5-5 0-1.828-.359-3-2.5-3-1 1.016-.484 3.406-2 5-.438.453-.812.938-1.203 1.422C9.594 9.328 7.735 12 6.5 12H6v10h.5c.875 0 2.312.562 3.156.859C11.375 23.453 13.156 24 15 24h1.891c1.766 0 3-.703 3-2.609 0-.297-.031-.594-.078-.875.656-.359 1.016-1.25 1.016-1.969 0-.375-.094-.75-.281-1.078.531-.5.828-1.125.828-1.859 0-.5-.219-1.234-.547-1.609.734-.016 1.172-1.422 1.172-2zm2-.016a4.6 4.6 0 0 1-.766 2.547c.094.344.141.719.141 1.078 0 .781-.203 1.563-.594 2.25.031.219.047.453.047.672 0 1-.328 2-.938 2.781.031 2.953-1.984 4.688-4.875 4.688h-2.016c-2.219 0-4.281-.656-6.344-1.375C8.202 24.469 6.936 24 6.499 24h-4.5c-1.109 0-2-.891-2-2V12c0-1.109.891-2 2-2H6.28c.609-.406 1.672-1.813 2.141-2.422a28.878 28.878 0 0 1 1.672-2c.938-1 .438-3.469 2-5A2.042 2.042 0 0 1 13.499 0c1.625 0 3.187.578 3.953 2.094.484.953.547 1.859.547 2.906 0 1.094-.281 2.031-.75 3h2.75c2.156 0 4 1.828 4 3.984z"/></symbol><symbol viewBox="0 0 20 20" id="time" xmlns="http://www.w3.org/2000/svg"><path d="M10 20C4.477 20 0 15.523 0 10S4.477 0 10 0s10 4.477 10 10-4.477 10-10 10zm0-2a8 8 0 0 0 0-16 8 8 0 0 0 0 16zm-1-7.59V4h2v5.59l3.95 3.95-1.41 1.41L9 10.41z"/></symbol><symbol viewBox="0 0 32 32" id="tw" xmlns="http://www.w3.org/2000/svg"><path d="M32 7.075a12.941 12.941 0 0 1-3.769 1.031 6.601 6.601 0 0 0 2.887-3.631 13.21 13.21 0 0 1-4.169 1.594A6.565 6.565 0 0 0 22.155 4a6.563 6.563 0 0 0-6.563 6.563c0 .512.056 1.012.169 1.494A18.635 18.635 0 0 1 2.23 5.195a6.56 6.56 0 0 0-.887 3.3 6.557 6.557 0 0 0 2.919 5.463 6.565 6.565 0 0 1-2.975-.819v.081a6.565 6.565 0 0 0 5.269 6.437 6.574 6.574 0 0 1-2.968.112 6.588 6.588 0 0 0 6.131 4.563 13.17 13.17 0 0 1-9.725 2.719 18.568 18.568 0 0 0 10.069 2.95c12.075 0 18.681-10.006 18.681-18.681 0-.287-.006-.569-.019-.85A13.216 13.216 0 0 0 32 7.076z"/></symbol><symbol viewBox="0 0 512 512" id="user" xmlns="http://www.w3.org/2000/svg"><path d="M288 353.306v-26.39c35.249-19.864 64-69.386 64-118.916 0-79.529 0-144-96-144s-96 64.471-96 144c0 49.53 28.751 99.052 64 118.916v26.39C115.449 362.18 32 415.516 32 480h448c0-64.484-83.449-117.82-192-126.694z"/></symbol><symbol viewBox="0 0 576 512" id="users" xmlns="http://www.w3.org/2000/svg"><path d="M384 385.306v-26.39c35.249-19.864 64-69.386 64-118.916 0-79.529 0-144-96-144s-96 64.471-96 144c0 49.53 28.751 99.052 64 118.916v26.39C211.449 394.18 128 447.516 128 512h448c0-64.484-83.449-117.82-192-126.694z"/><path d="M163.598 397.664c27.655-18.075 62.04-31.818 99.894-40.207-7.527-8.892-14.354-18.811-20.246-29.51C228.039 300.33 220 269.918 220 240c0-43.021 0-83.655 15.3-116.881 14.853-32.252 41.564-52.248 79.611-59.744C306.454 25.135 283.941 0 224 0c-96 0-96 64.471-96 144 0 49.53 28.751 99.052 64 118.916v26.39C83.449 298.18 0 351.516 0 416h139.503c7.259-6.455 15.298-12.586 24.095-18.336z"/></symbol><symbol viewBox="0 0 20 20" id="vk" xmlns="http://www.w3.org/2000/svg"><path d="M17.802 12.298s1.617 1.597 2.017 2.336a.127.127 0 0 1 .018.035c.163.273.203.487.123.645-.135.261-.592.392-.747.403h-2.858c-.199 0-.613-.052-1.117-.4-.385-.269-.768-.712-1.139-1.145-.554-.643-1.033-1.201-1.518-1.201a.548.548 0 0 0-.18.03c-.367.116-.833.639-.833 2.032 0 .436-.344.684-.585.684H9.674c-.446 0-2.768-.156-4.827-2.327C2.324 10.732.058 5.4.036 5.353c-.141-.345.155-.533.475-.533h2.886c.387 0 .513.234.601.444.102.241.48 1.205 1.1 2.288 1.004 1.762 1.621 2.479 2.114 2.479a.527.527 0 0 0 .264-.07c.644-.354.524-2.654.494-3.128 0-.092-.001-1.027-.331-1.479-.236-.324-.638-.45-.881-.496.065-.094.203-.238.38-.323.441-.22 1.238-.252 2.029-.252h.439c.858.012 1.08.067 1.392.146.628.15.64.557.585 1.943-.016.396-.033.842-.033 1.367 0 .112-.005.237-.005.364-.019.711-.044 1.512.458 1.841a.41.41 0 0 0 .217.062c.174 0 .695 0 2.108-2.425.62-1.071 1.1-2.334 1.133-2.429.028-.053.112-.202.214-.262a.479.479 0 0 1 .236-.056h3.395c.37 0 .621.056.67.196.082.227-.016.92-1.566 3.016-.261.349-.49.651-.691.915-1.405 1.844-1.405 1.937.083 3.337z"/></symbol><symbol viewBox="0 0 1216 1024" id="wallet" xmlns="http://www.w3.org/2000/svg"><path d="M1040.288 240c8.832 0 16-7.168 16-16v-53.28c0-28.896-23.52-52.416-52.416-52.416h-85.984l-19.616-57.888c-2.752-8.16-11.52-12.704-19.808-10.176L412.768 191.808c-8.448 2.592-13.216 11.52-10.656 19.968 2.112 6.912 8.448 11.328 15.328 11.328a17 17 0 0 0 4.672-.672L872.96 85.344l42.976 126.88c2.848 8.384 12 12.928 20.288 10.016 8.384-2.816 12.864-11.936 10.016-20.288l-17.504-51.68h75.168c11.264 0 20.416 9.152 20.416 20.416V224c-.032 8.832 7.136 16 15.968 16zM1168 480c-8.832 0-16 7.168-16 16s7.168 16 16 16c11.232 0 16 4.768 16 16v192c0 11.232-4.768 16-16 16H912c-11.232 0-16-4.768-16-16V560c0-11.232 4.768-16 16-16h192c8.832 0 16-7.168 16-16V336c0-29.152-18.848-48-48-48H96c-39.456 0-64-24.544-64-64s24.544-64 64-64h162.432L161.6 191.936c-8.384 2.752-12.96 11.808-10.208 20.192 2.208 6.72 8.48 10.976 15.2 10.976 1.664 0 3.328-.256 5.024-.8L751.424 31.168c8.384-2.784 12.96-11.808 10.176-20.224-2.752-8.384-11.808-12.96-20.224-10.176l-387.2 127.68c-.736-.128-1.408-.448-2.176-.448H96c-57.408 0-96 38.592-96 96v704c0 57.408 38.592 96 96 96h976c29.152 0 48-18.848 48-48V816c0-8.832-7.168-16-16-16s-16 7.168-16 16v160c0 11.232-4.768 16-16 16H96c-39.456 0-64-24.544-64-64V297.984C48.416 311.84 70.144 320 96 320h976c11.232 0 16 4.768 16 16v176H912c-29.152 0-48 18.848-48 48v160c0 29.152 18.848 48 48 48h256c29.152 0 48-18.848 48-48V528c0-29.152-18.848-48-48-48zM992 640c0 17.673 14.327 32 32 32s32-14.327 32-32c0-17.673-14.327-32-32-32s-32 14.327-32 32z"/></symbol><symbol viewBox="0 0 512 512" id="youtube" xmlns="http://www.w3.org/2000/svg"><path d="M506.9 153.6s-5-35.3-20.4-50.8c-19.5-20.4-41.3-20.5-51.3-21.7-71.6-5.2-179.1-5.2-179.1-5.2h-.2s-107.5 0-179.1 5.2c-10 1.2-31.8 1.3-51.3 21.7-15.4 15.5-20.3 50.8-20.3 50.8S.1 195 .1 236.5v38.8c0 41.4 5.1 82.9 5.1 82.9s5 35.3 20.3 50.8C45 429.4 70.6 428.7 82 430.9c41 3.9 174.1 5.1 174.1 5.1s107.6-.2 179.2-5.3c10-1.2 31.8-1.3 51.3-21.7 15.4-15.5 20.4-50.8 20.4-50.8s5.1-41.4 5.1-82.9v-38.8c-.1-41.4-5.2-82.9-5.2-82.9zM203.1 322.4V178.5l138.3 72.2-138.3 71.7z"/></symbol></svg>