<?xml version="1.0" standalone="no"?>
<!DOCTYPE svg PUBLIC "-//W3C//DTD SVG 20010904//EN"
 "http://www.w3.org/TR/2001/REC-SVG-20010904/DTD/svg10.dtd">
<svg version="1.0" xmlns="http://www.w3.org/2000/svg"
 width="57.000000pt" height="45.000000pt" viewBox="0 0 57.000000 45.000000"
 preserveAspectRatio="xMidYMid meet">

<g transform="translate(0.000000,45.000000) scale(0.100000,-0.100000)"
fill="#000000" stroke="none">
<path d="M150 375 l0 -74 -62 -3 -63 -3 -7 -80 c-4 -44 -10 -97 -13 -117 -6
-33 -3 -41 23 -68 34 -33 76 -39 108 -15 26 20 179 20 227 0 42 -17 207 -21
207 -5 0 6 -18 10 -40 10 l-41 0 18 25 c10 13 28 25 41 25 20 0 22 5 22 55 0
51 -2 55 -27 61 -16 4 -41 18 -56 31 -16 12 -42 23 -58 23 -27 0 -29 2 -29 40
0 21 -9 62 -20 89 -11 28 -17 57 -14 66 5 13 -10 15 -105 15 l-111 0 0 -75z
m209 -1 c11 -31 21 -75 21 -98 0 -35 -4 -45 -25 -56 -14 -7 -25 -17 -25 -22 0
-4 -9 -8 -19 -8 -11 0 -26 -7 -35 -15 -18 -18 -131 -21 -142 -4 -4 7 -25 9
-56 7 l-49 -5 3 51 3 51 58 3 57 3 0 -46 c0 -25 5 -45 10 -45 6 0 10 47 10
120 l0 120 84 0 83 0 22 -56z m117 -169 c18 -14 17 -14 -13 -15 -18 0 -33 5
-33 11 0 11 -24 9 -65 -6 -20 -7 -20 -6 -1 9 25 20 86 21 112 1z m-326 -75
c15 -29 12 -55 -11 -84 -52 -67 -149 9 -108 85 22 41 97 40 119 -1z m400 -2
l0 -38 -130 0 -130 0 0 39 0 39 130 -1 130 0 0 -39z m-280 -23 c0 -28 4 -35
19 -35 11 0 23 -4 26 -10 4 -6 -21 -10 -67 -10 l-73 0 -1 45 -1 45 49 0 48 0
0 -35z m191 -57 l44 23 -28 -26 c-33 -29 -67 -32 -108 -8 -43 26 -35 35 9 10
l39 -21 44 22z m-16 12 c-8 -13 -35 -13 -55 0 -11 7 -5 10 23 10 23 0 36 -4
32 -10z"/>
<path d="M192 313 l3 -98 60 -2 c82 -4 110 18 102 80 -3 23 -12 59 -21 80
l-16 37 -65 0 -66 0 3 -97z m48 27 c0 -27 5 -50 10 -50 6 0 10 23 10 50 0 46
2 50 24 50 19 0 27 -9 40 -40 35 -88 17 -120 -68 -120 l-46 0 0 80 c0 64 3 80
15 80 11 0 15 -12 15 -50z"/>
<path d="M70 250 c0 -5 14 -10 30 -10 17 0 30 5 30 10 0 6 -13 10 -30 10 -16
0 -30 -4 -30 -10z"/>
<path d="M70 210 c0 -5 14 -10 30 -10 17 0 30 5 30 10 0 6 -13 10 -30 10 -16
0 -30 -4 -30 -10z"/>
<path d="M66 128 c-19 -11 -21 -49 -4 -66 30 -30 75 0 64 42 -7 27 -35 38 -60
24z m39 -34 c0 -10 -8 -20 -17 -22 -18 -3 -26 27 -11 42 12 11 28 0 28 -20z"/>
</g>
</svg>
