<?xml version="1.0" standalone="no"?>
<!DOCTYPE svg PUBLIC "-//W3C//DTD SVG 20010904//EN"
 "http://www.w3.org/TR/2001/REC-SVG-20010904/DTD/svg10.dtd">
<svg version="1.0" xmlns="http://www.w3.org/2000/svg"
 width="58.000000pt" height="55.000000pt" viewBox="0 0 58.000000 55.000000"
 preserveAspectRatio="xMidYMid meet">

<g transform="translate(0.000000,55.000000) scale(0.100000,-0.100000)"
fill="#000000" stroke="none">
<path d="M508 532 c-7 -10 -51 -45 -98 -77 l-85 -60 -100 -5 c-94 -5 -100 -6
-103 -27 -2 -13 1 -23 7 -23 23 0 10 -30 -19 -45 -16 -8 -33 -27 -36 -40 -3
-14 -12 -25 -19 -25 -15 0 -25 -22 -25 -58 0 -15 -7 -36 -15 -46 -21 -28 -19
-82 5 -106 19 -19 33 -20 276 -20 167 0 253 3 249 10 -3 6 -32 10 -63 10 l-57
0 3 46 c4 49 -16 84 -48 84 -15 0 -19 12 -23 68 l-4 67 88 90 89 90 0 -38 c0
-27 -4 -37 -16 -37 -13 0 -15 -7 -9 -37 4 -21 12 -41 18 -45 9 -5 9 -10 -1
-20 -17 -17 -15 -55 3 -62 23 -9 45 4 45 27 0 20 0 20 -14 1 -11 -14 -18 -16
-26 -8 -8 8 -7 14 5 24 8 7 15 18 15 25 0 8 4 15 9 17 5 2 12 20 16 41 6 30 4
37 -9 37 -21 0 -22 72 -1 90 29 24 11 70 -26 70 -10 0 -24 -8 -31 -18z m52
-22 c0 -13 -7 -20 -20 -20 -13 0 -20 7 -20 20 0 13 7 20 20 20 13 0 20 -7 20
-20z m-45 -29 c3 -5 1 -13 -5 -16 -15 -9 -43 3 -35 15 8 13 32 13 40 1z m-89
-68 c-3 -3 -13 -3 -22 1 -16 6 -15 8 2 21 16 12 19 12 22 -1 2 -9 1 -18 -2
-21z m54 28 c0 -5 -7 -14 -15 -21 -13 -10 -15 -9 -15 9 0 12 6 21 15 21 8 0
15 -4 15 -9z m-67 -47 c11 -4 4 -16 -30 -47 -36 -33 -46 -38 -53 -26 -7 10 -4
15 11 17 17 3 20 9 17 33 -4 25 -1 29 18 29 12 0 29 -3 37 -6z m-120 -31 c-29
-2 -77 -2 -105 0 -29 2 -6 3 52 3 58 0 81 -1 53 -3z m267 -13 c0 -13 -7 -20
-20 -20 -13 0 -20 7 -20 20 0 13 7 20 20 20 13 0 20 -7 20 -20z m-240 -56 c11
-25 20 -68 20 -95 l0 -49 -146 0 -145 0 3 33 c3 31 5 32 51 35 47 3 47 3 48
40 1 20 1 41 0 46 -6 29 11 36 79 36 l71 0 19 -46z m-182 -31 c-2 -20 -9 -29
-25 -31 -27 -4 -30 14 -6 40 23 26 35 22 31 -9z m262 -143 c24 -24 26 -63 4
-84 -13 -13 -44 -16 -188 -16 -187 0 -196 3 -196 54 0 61 15 66 197 66 150 0
165 -2 183 -20z"/>
<path d="M190 273 c1 -35 7 -56 24 -76 20 -25 29 -28 67 -25 40 3 44 5 47 32
2 16 -4 48 -13 72 l-17 44 -54 0 -54 0 0 -47z m108 2 c7 -14 12 -39 12 -55 0
-27 -3 -30 -34 -30 -27 0 -39 7 -55 29 -12 16 -21 41 -21 55 0 24 3 26 43 26
37 0 46 -4 55 -25z"/>
<path d="M60 190 c0 -5 18 -10 40 -10 22 0 40 5 40 10 0 6 -18 10 -40 10 -22
0 -40 -4 -40 -10z"/>
<path d="M42 108 c-15 -15 -15 -51 0 -66 25 -25 78 -8 78 25 0 7 -4 13 -10 13
-5 0 -10 -6 -10 -14 0 -21 -27 -27 -44 -10 -17 17 -11 44 10 44 8 0 14 5 14
10 0 14 -23 13 -38 -2z"/>
<path d="M326 104 c-30 -30 -13 -74 29 -74 24 0 45 18 45 37 0 8 -7 6 -20 -7
-11 -11 -26 -17 -35 -14 -19 8 -20 43 0 50 16 7 21 24 6 24 -5 0 -17 -7 -25
-16z"/>
<path d="M134 65 c-4 -9 -2 -21 4 -27 15 -15 44 -1 40 19 -4 23 -36 29 -44 8z"/>
<path d="M201 66 c-16 -19 -6 -36 20 -36 15 0 20 6 17 22 -4 27 -21 33 -37 14z"/>
<path d="M263 69 c-16 -16 -5 -39 19 -39 14 0 19 6 16 22 -4 25 -19 33 -35 17z"/>
</g>
</svg>
