<?xml version="1.0" standalone="no"?>
<!DOCTYPE svg PUBLIC "-//W3C//DTD SVG 20010904//EN"
 "http://www.w3.org/TR/2001/REC-SVG-20010904/DTD/svg10.dtd">
<svg version="1.0" xmlns="http://www.w3.org/2000/svg"
 width="59.000000pt" height="41.000000pt" viewBox="0 0 59.000000 41.000000"
 preserveAspectRatio="xMidYMid meet">

<g transform="translate(0.000000,41.000000) scale(0.100000,-0.100000)"
fill="#000000" stroke="none">
<path d="M370 385 l-10 -25 -169 0 -170 0 -10 -37 c-6 -21 -11 -42 -11 -48 0
-5 33 -32 73 -59 39 -26 64 -45 54 -42 -25 8 -83 -18 -96 -42 -15 -29 -14 -64
5 -90 14 -21 14 -22 -5 -22 -12 0 -21 -4 -21 -10 0 -6 60 -10 160 -10 100 0
160 4 160 10 0 6 -33 10 -79 10 l-79 0 14 30 c15 30 16 30 100 30 80 0 85 -1
94 -24 11 -31 48 -56 81 -56 30 0 75 32 84 59 3 10 15 21 25 24 18 5 20 14 20
80 0 94 -5 107 -40 107 -24 0 -29 5 -35 33 -14 67 -13 67 -64 67 l-47 0 -33
-135 -33 -135 -73 0 c-64 0 -73 2 -78 20 -6 22 3 26 20 9 5 -5 34 -9 63 -7
l53 3 35 133 35 132 48 0 c27 0 49 5 49 10 0 6 -25 10 -55 10 -50 0 -56 -2
-65 -25z m72 -62 c2 -22 9 -29 29 -31 17 -2 29 -11 32 -23 4 -14 14 -19 36
-19 30 0 31 -2 31 -41 l0 -41 -31 26 c-25 22 -41 26 -91 26 l-60 0 6 28 c20
79 28 102 36 102 5 0 10 -12 12 -27z m46 4 c2 -10 -3 -17 -12 -17 -10 0 -16 9
-16 21 0 24 23 21 28 -4z m-155 -87 l-25 -100 -43 0 c-35 0 -57 10 -141 68
-99 68 -104 75 -89 120 3 9 45 12 164 12 l159 0 -25 -100z m210 -75 c15 -13
27 -33 27 -45 0 -28 -14 -25 -28 6 -7 14 -28 32 -47 40 -32 13 -39 13 -70 -2
-21 -10 -38 -26 -41 -40 -3 -13 -10 -24 -15 -24 -11 0 -11 7 2 53 l10 37 67 0
c56 -1 71 -4 95 -25z m-404 -20 c49 -25 49 -89 1 -115 -29 -15 -51 -12 -77 12
-43 40 -19 104 45 117 2 1 16 -6 31 -14z m374 -17 c23 -27 22 -57 -5 -85 -50
-54 -137 4 -107 71 22 47 77 54 112 14z"/>
<path d="M55 299 c-6 -19 0 -38 9 -28 10 12 16 49 7 49 -5 0 -13 -9 -16 -21z"/>
<path d="M111 289 c-6 -18 -11 -36 -11 -40 0 -16 19 -9 24 9 2 9 7 27 11 40
10 34 -12 26 -24 -9z"/>
<path d="M177 313 c-2 -5 -7 -21 -11 -38 -4 -16 -9 -38 -12 -47 -3 -10 -1 -18
5 -18 6 0 15 18 21 41 6 22 14 47 17 55 5 14 -12 20 -20 7z"/>
<path d="M237 310 c-6 -15 -37 -121 -37 -127 0 -2 4 -3 10 -3 12 0 43 104 37
128 -3 14 -5 14 -10 2z"/>
<path d="M297 313 c-7 -11 -37 -127 -37 -142 0 -6 4 -11 8 -11 10 0 48 148 40
156 -3 3 -8 2 -11 -3z"/>
<path d="M77 122 c-32 -35 -15 -82 28 -82 23 0 55 28 55 48 0 16 -37 52 -53
52 -8 0 -21 -8 -30 -18z m52 -16 c15 -18 3 -46 -20 -46 -25 0 -35 26 -19 45
15 19 24 19 39 1z"/>
<path d="M430 120 c-25 -25 -25 -42 -2 -63 35 -32 82 -15 82 28 0 23 -28 55
-48 55 -7 0 -21 -9 -32 -20z m48 -9 c20 -12 10 -46 -14 -49 -25 -4 -40 24 -23
44 13 16 19 17 37 5z"/>
</g>
</svg>
