<?xml version="1.0" standalone="no"?>
<!DOCTYPE svg PUBLIC "-//W3C//DTD SVG 20010904//EN"
 "http://www.w3.org/TR/2001/REC-SVG-20010904/DTD/svg10.dtd">
<svg version="1.0" xmlns="http://www.w3.org/2000/svg"
 width="58.000000pt" height="43.000000pt" viewBox="0 0 58.000000 43.000000"
 preserveAspectRatio="xMidYMid meet">

<g transform="translate(0.000000,43.000000) scale(0.100000,-0.100000)"
fill="#000000" stroke="none">
<path d="M127 424 c-4 -4 -7 -23 -7 -41 0 -19 -3 -33 -7 -31 -5 2 -20 10 -36
17 -21 11 -33 12 -52 3 l-26 -12 3 -147 c3 -140 4 -148 23 -151 12 -2 26 -12
33 -22 11 -18 9 -20 -12 -20 -14 0 -28 -4 -31 -10 -4 -6 40 -10 124 -10 81 0
131 4 131 10 0 6 -18 10 -40 10 -38 0 -39 1 -28 20 19 30 64 26 98 -10 l28
-30 122 0 c78 0 119 4 115 10 -3 6 -35 10 -70 10 -51 0 -63 3 -59 14 3 9 30
16 75 20 38 4 69 11 69 17 0 5 -6 9 -12 9 -7 0 -25 23 -40 50 -16 28 -34 50
-42 50 -8 0 -21 12 -28 27 -8 16 -27 31 -48 38 l-35 12 -10 84 -10 84 -111 3
c-60 1 -113 -1 -117 -4z m213 -24 c0 -5 -37 -10 -82 -12 -83 -3 -83 -3 -86
-31 -5 -40 -26 -28 -30 16 l-3 37 100 0 c58 0 101 -4 101 -10z m12 -80 c2 -29
-1 -50 -7 -50 -5 0 -45 12 -87 27 -67 23 -78 30 -78 50 0 22 3 23 84 23 l84 0
4 -50z m-257 0 c18 -28 25 -53 25 -87 -1 -43 -4 -50 -33 -68 -18 -12 -35 -33
-41 -52 -18 -64 -26 -31 -26 107 l0 140 25 0 c18 0 32 -11 50 -40z m195 -52
c80 -27 148 -55 152 -61 11 -17 10 -37 -2 -37 -5 0 -10 6 -10 13 0 8 -60 34
-155 67 -85 30 -157 60 -160 68 -4 10 0 12 12 7 10 -3 83 -29 163 -57z m-118
-21 c3 -20 11 -23 83 -28 44 -3 98 -12 119 -21 36 -13 41 -20 54 -67 14 -49
14 -54 -5 -79 -29 -39 -83 -42 -112 -6 -11 15 -21 36 -21 47 0 26 38 67 62 67
10 0 18 5 18 11 0 7 -10 9 -27 4 -38 -9 -50 -21 -63 -61 -9 -26 -17 -34 -36
-34 -18 0 -24 5 -24 21 0 21 -44 72 -70 81 -8 3 -12 9 -8 12 3 4 28 -2 53 -13
51 -23 85 -27 85 -11 0 6 -9 10 -21 10 -11 0 -43 10 -70 21 -42 19 -49 25 -49
50 0 34 27 30 32 -4z m53 3 c17 -7 15 -9 -12 -9 -18 -1 -33 4 -33 9 0 12 17
12 45 0z m-47 -106 c16 -11 22 -25 22 -51 0 -47 -24 -73 -67 -73 -42 0 -73 30
-73 70 0 59 67 90 118 54z m337 -24 c14 -22 25 -42 25 -45 0 -3 -17 -5 -38 -5
-36 0 -39 3 -50 37 -9 29 -9 39 1 45 23 15 37 8 62 -32z"/>
<path d="M30 280 c0 -5 14 -10 31 -10 17 0 28 4 24 10 -3 6 -17 10 -31 10 -13
0 -24 -4 -24 -10z"/>
<path d="M30 250 c0 -5 14 -10 30 -10 17 0 30 5 30 10 0 6 -13 10 -30 10 -16
0 -30 -4 -30 -10z"/>
<path d="M30 220 c0 -5 14 -10 30 -10 17 0 30 5 30 10 0 6 -13 10 -30 10 -16
0 -30 -4 -30 -10z"/>
<path d="M324 115 c-15 -23 -15 -27 0 -50 29 -44 86 -28 86 25 0 53 -57 69
-86 25z m70 -10 c9 -25 -5 -45 -30 -45 -26 0 -40 20 -30 45 3 8 16 15 30 15
13 0 26 -7 30 -15z"/>
<path d="M97 122 c-22 -24 -21 -45 1 -65 23 -21 46 -22 66 -1 30 30 9 84 -33
84 -10 0 -25 -8 -34 -18z m58 -32 c0 -18 -6 -26 -23 -28 -13 -2 -25 3 -28 12
-10 26 4 48 28 44 17 -2 23 -10 23 -28z"/>
</g>
</svg>
