<?xml version="1.0" standalone="no"?>
<!DOCTYPE svg PUBLIC "-//W3C//DTD SVG 20010904//EN"
 "http://www.w3.org/TR/2001/REC-SVG-20010904/DTD/svg10.dtd">
<svg version="1.0" xmlns="http://www.w3.org/2000/svg"
 width="57.000000pt" height="51.000000pt" viewBox="0 0 57.000000 51.000000"
 preserveAspectRatio="xMidYMid meet">

<g transform="translate(0.000000,51.000000) scale(0.100000,-0.100000)"
fill="#000000" stroke="none">
<path d="M447 482 c-19 -20 -28 -40 -29 -66 -1 -34 -7 -42 -60 -79 l-58 -41 0
-78 c0 -61 -3 -78 -14 -78 -8 0 -21 -3 -30 -6 -10 -4 -16 -1 -16 9 0 9 10 17
23 19 27 4 26 20 -4 119 l-21 69 -54 0 -54 0 0 -60 c0 -53 -2 -60 -20 -60 -17
0 -20 7 -20 39 0 27 -5 41 -16 45 -9 4 -20 3 -23 0 -3 -4 0 -9 7 -11 6 -3 12
-20 12 -39 0 -26 -4 -34 -17 -33 -11 0 -13 3 -5 6 6 2 12 13 12 24 0 14 -7 19
-29 19 l-28 0 -2 -115 -2 -115 35 0 c21 0 36 -6 40 -15 4 -12 -3 -15 -34 -15
-22 0 -40 -4 -40 -10 0 -6 102 -10 285 -10 183 0 285 4 285 10 0 6 -31 10 -72
10 -56 0 -69 3 -60 12 30 30 8 91 -39 107 -31 11 -31 11 -27 69 4 52 8 62 39
90 18 17 36 26 37 21 4 -11 102 -12 102 -1 0 5 -8 16 -19 26 -12 11 -23 44
-31 91 -7 41 -16 75 -20 75 -3 0 -18 -13 -33 -28z m38 -59 c3 -27 13 -58 21
-70 14 -22 13 -23 -14 -23 -23 0 -30 6 -42 38 -15 40 -14 80 2 99 16 20 25 7
33 -44z m-75 -91 c0 -5 -11 -19 -25 -32 -14 -13 -27 -38 -31 -56 -7 -40 -30
-36 -36 7 -4 25 1 34 36 59 41 31 56 36 56 22z m-210 -11 c-22 -6 -25 -13 -28
-55 -4 -55 5 -66 55 -66 17 0 35 -4 38 -10 4 -6 -26 -10 -83 -10 -85 0 -89 -1
-117 -30 -16 -16 -32 -30 -37 -30 -4 0 -8 20 -8 45 l0 45 65 0 65 0 0 60 0 60
38 -1 c32 -1 33 -2 12 -8z m46 -63 l13 -38 -40 0 -39 0 0 41 c0 38 2 40 27 37
20 -2 29 -11 39 -40z m104 -100 c0 -23 -42 -87 -57 -88 -7 0 -13 11 -13 25 0
15 6 25 15 25 8 0 17 12 21 28 12 54 14 58 24 42 6 -8 10 -23 10 -32z m-130
-43 c0 -25 -4 -45 -10 -45 -5 0 -10 7 -10 15 0 25 -38 55 -68 55 -29 0 -54
-20 -65 -52 -8 -21 -47 -24 -47 -4 0 8 8 17 18 20 11 4 29 18 42 31 20 21 33
25 82 25 l58 0 0 -45z m-52 -7 c15 -15 15 -61 0 -76 -20 -20 -56 -14 -74 13
-15 23 -15 27 0 50 18 27 54 33 74 13z m251 -2 c21 -25 9 -69 -21 -80 -50 -17
-89 42 -52 78 19 20 58 21 73 2z m-159 -6 c0 -5 -4 -10 -10 -10 -5 0 -10 5
-10 10 0 6 5 10 10 10 6 0 10 -4 10 -10z m31 -50 c15 0 29 -7 33 -15 4 -12 -7
-15 -65 -15 -52 0 -70 3 -67 13 3 6 14 13 26 15 12 2 22 8 22 15 0 8 3 8 12
-1 7 -7 24 -12 39 -12z"/>
<path d="M105 90 c-11 -17 5 -50 24 -50 24 0 43 23 35 44 -7 18 -49 22 -59 6z
m45 -20 c0 -5 -7 -10 -15 -10 -8 0 -15 5 -15 10 0 6 7 10 15 10 8 0 15 -4 15
-10z"/>
<path d="M354 86 c-10 -26 4 -48 28 -44 33 4 33 52 0 56 -13 2 -25 -3 -28 -12z
m36 -16 c0 -5 -4 -10 -10 -10 -5 0 -10 5 -10 10 0 6 5 10 10 10 6 0 10 -4 10
-10z"/>
</g>
</svg>
