<?xml version="1.0" standalone="no"?>
<!DOCTYPE svg PUBLIC "-//W3C//DTD SVG 20010904//EN"
 "http://www.w3.org/TR/2001/REC-SVG-20010904/DTD/svg10.dtd">
<svg version="1.0" xmlns="http://www.w3.org/2000/svg"
 width="59.000000pt" height="58.000000pt" viewBox="0 0 59.000000 58.000000"
 preserveAspectRatio="xMidYMid meet">

<g transform="translate(0.000000,58.000000) scale(0.100000,-0.100000)"
fill="#000000" stroke="none">
<path d="M384 572 c-6 -4 -43 -51 -83 -104 l-73 -98 -49 0 c-54 0 -69 -15 -69
-69 0 -27 -3 -30 -37 -33 l-38 -3 0 -55 0 -55 48 -3 c60 -4 62 -22 2 -22 -77
0 -112 -61 -62 -108 23 -21 31 -22 265 -22 155 0 242 4 242 10 0 6 -38 10 -95
10 -94 0 -94 0 -86 23 18 48 -16 87 -76 87 -23 0 -43 5 -43 10 0 6 18 10 40
10 33 0 40 3 40 20 0 11 5 20 10 20 15 0 12 47 -5 80 -15 28 -14 32 31 105 54
88 42 93 136 -45 l66 -96 -61 -22 c-35 -12 -73 -19 -87 -16 -22 5 -20 1 15
-30 51 -46 78 -53 121 -33 30 15 34 21 34 57 0 22 5 48 11 58 9 15 -2 43 -66
162 -98 182 -99 184 -131 162z m36 -25 c0 -8 -3 -17 -7 -20 -9 -9 -34 13 -27
24 8 14 34 11 34 -4z m-32 -35 c9 -7 -1 -31 -40 -100 -29 -50 -56 -91 -59 -92
-4 0 -14 11 -23 25 -16 25 -15 27 40 100 59 78 61 80 82 67z m143 -174 c12
-26 19 -51 16 -55 -9 -8 -2 -16 -77 96 -57 86 -61 96 -50 119 11 26 12 25 50
-43 21 -38 48 -90 61 -117z m-295 14 c19 -12 74 -105 74 -124 0 -15 -8 -18
-45 -18 l-45 0 0 59 c0 33 -4 63 -10 66 -6 4 -10 -17 -10 -54 0 -48 -3 -61
-15 -61 -12 0 -15 14 -15 70 0 70 0 70 28 70 15 0 32 -4 38 -8z m-60 -151 c14
-6 45 -11 69 -11 25 0 45 -4 45 -10 0 -6 -33 -10 -80 -10 l-80 0 0 83 c0 103
14 125 18 29 3 -63 5 -70 28 -81z m394 59 c0 -5 -2 -10 -4 -10 -3 0 -8 5 -11
10 -3 6 -1 10 4 10 6 0 11 -4 11 -10z m-460 -50 c0 -38 -2 -40 -30 -40 -28 0
-30 2 -30 40 0 38 2 40 30 40 28 0 30 -2 30 -40z m436 -22 c12 -40 -50 -63
-90 -33 -23 17 -23 17 29 38 52 21 52 21 61 -5z m-336 -48 c0 -5 -13 -10 -30
-10 -16 0 -30 5 -30 10 0 6 14 10 30 10 17 0 30 -4 30 -10z m120 -49 c14 -27
13 -37 -6 -55 -12 -13 -41 -16 -148 -16 -139 0 -156 5 -156 45 0 40 17 45 162
45 126 0 138 -2 148 -19z"/>
<path d="M70 200 c0 -5 5 -10 10 -10 6 0 10 5 10 10 0 6 -4 10 -10 10 -5 0
-10 -4 -10 -10z"/>
<path d="M43 74 c-3 -8 -1 -20 5 -26 16 -16 42 -2 42 22 0 24 -38 28 -47 4z"/>
<path d="M116 81 c-11 -18 6 -42 28 -39 29 4 29 42 -1 46 -11 2 -24 -1 -27 -7z"/>
<path d="M193 74 c-3 -8 -1 -20 5 -26 16 -16 42 -2 42 22 0 24 -38 28 -47 4z"/>
<path d="M266 81 c-11 -18 6 -42 28 -39 29 4 29 42 -1 46 -11 2 -24 -1 -27 -7z"/>
</g>
</svg>
