<?xml version="1.0" encoding="utf-8"?>
<!-- Generator: Adobe Illustrator 22.1.0, SVG Export Plug-In . SVG Version: 6.00 Build 0)  -->
<svg version="1.1" id="Слой_1" xmlns="http://www.w3.org/2000/svg" xmlns:xlink="http://www.w3.org/1999/xlink" x="0px" y="0px"
	 viewBox="0 0 380.4 437.5" style="enable-background:new 0 0 380.4 437.5;" xml:space="preserve">
<style type="text/css">
	.st0{display:none;}
	.st1{display:inline;}
	.st2{clip-path:url(#SVGID_2_);}
	.st3{fill:#262626;}
	.st4{fill:#FFAF2D;}
	.st5{fill:#EABE8D;}
	.st6{fill:#F4D0AB;}
	.st7{fill:none;}
	.st8{fill:#FFBA55;}
	.st9{fill:#EE9D29;}
	.st10{display:inline;fill:#1C7F98;}
	.st11{display:inline;fill:#2D6679;}
	.st12{display:inline;fill:#FFFFFF;}
	.st13{display:inline;fill:#C1E3E8;}
	.st14{clip-path:url(#SVGID_4_);}
	.st15{fill:#3A3A3A;}
	.st16{fill:#444343;}
	.st17{fill:#437282;}
	.st18{fill:#FFFFFF;}
	.st19{fill:#2D6679;}
	.st20{fill:#1C7F98;}
	.st21{display:inline;fill:#262626;}
	.st22{clip-path:url(#SVGID_6_);}
	.st23{fill:#FDCC32;}
	.st24{fill:#4D4D4D;}
	.st25{fill:#131313;}
	.st26{fill:#9C969E;}
	.st27{fill:#FFD164;}
	.st28{clip-path:url(#SVGID_6_);fill:none;}
	.st29{clip-path:url(#SVGID_8_);}
	.st30{fill:#FED2A4;}
	.st31{fill:#FFBD86;}
</style>
<g class="st0">
	<g class="st1">
		<defs>
			<circle id="SVGID_1_" cx="183.5" cy="216" r="177.1"/>
		</defs>
		<use xlink:href="#SVGID_1_"  style="overflow:visible;fill:#FFFFFF;"/>
		<clipPath id="SVGID_2_">
			<use xlink:href="#SVGID_1_"  style="overflow:visible;"/>
		</clipPath>
		<g class="st2">
			<polygon class="st3" points="236.6,278 88.8,278 95.3,96 228.9,96 			"/>
			<path class="st4" d="M187.7,481h-53.3c-24,0-43.6-19.6-43.6-43.6L79.9,275.1c0-24,19.6-43.6,43.6-43.6h75.1
				c24,0,43.6,19.6,43.6,43.6l-10.9,162.3C231.2,461.4,211.6,481,187.7,481z"/>
			<path class="st5" d="M194.9,235.5c0-1.3-0.2-2.6-0.6-3.9h-66.6c-0.4,1.3-0.6,2.6-0.6,3.9c0,11.8,15.2,21.4,33.9,21.4
				S194.9,247.3,194.9,235.5z"/>
			<path class="st5" d="M142.3,169.1v49.4c0,7.2-5.9,13.1-13.1,13.1h65.7c-7.2,0-13.1-5.9-13.1-13.1v-49.4"/>
			<ellipse class="st6" cx="162" cy="139.6" rx="61.3" ry="77.8"/>
			<g>
				<polygon class="st7" points="228.3,110.3 228.3,110.3 223.3,110.3 223.9,110.3 				"/>
				<path class="st7" d="M95.8,110.3h4.4c0.1,0,0.5,0,0.6,0L95.8,110.3L95.8,110.3z"/>
			</g>
			<path class="st3" d="M189,49c0,0-14.5,66.9-42.4,95.5c-22.4,23-48.3,35.5-48.3,35.5l2.5-98.8L194.9,49"/>
			<path class="st3" d="M228.3,131.2c0,0-44.1,2.8-68.4-6.8c-19.6-7.7-33.7-20.2-33.7-20.2l60.3-18.1l41.4,30.6"/>
			<g>
				<path class="st4" d="M94,97.7v-27c0-33.3,27.2-60.5,60.5-60.5h15.1c33.3,0,60.5,27.2,60.5,60.5v27H94z"/>
				<path class="st8" d="M177.2,97.7v-84c0-7.4-6.1-13.4-13.4-13.4h-3.4c-7.4,0-13.4,6.1-13.4,13.4v84H177.2z"/>
				<path class="st8" d="M231.5,110.3H92.6c-3.2,0-5.8-2.6-5.8-5.8v-1c0-3.2,2.6-5.8,5.8-5.8h138.8c3.2,0,5.8,2.6,5.8,5.8v1
					C237.2,107.7,234.6,110.3,231.5,110.3z"/>
				<path class="st9" d="M229.1,110.3c0,6.2-27.2,11.3-60.5,11.3h-15.1c-33.3,0-60.5-5.1-60.5-11.3H229.1z"/>
			</g>
		</g>
	</g>
	<g class="st1">
		<path class="st4" d="M94.5,97.6V70.5c0-33.4,27.3-60.7,60.7-60.7h15.2c33.4,0,60.7,27.3,60.7,60.7v27.1H94.5z"/>
		<path class="st8" d="M177.9,97.6V13.4c0-7.4-6.1-13.5-13.5-13.5H161c-7.4,0-13.5,6.1-13.5,13.5v84.2H177.9z"/>
		<path class="st8" d="M232.3,110.2H93.1c-3.2,0-5.8-2.6-5.8-5.8v-1.1c0-3.2,2.6-5.8,5.8-5.8h139.2c3.2,0,5.8,2.6,5.8,5.8v1.1
			C238.1,107.6,235.5,110.2,232.3,110.2z"/>
		<path class="st9" d="M230,110.2c0,6.2-27.3,11.3-60.7,11.3h-15.2c-33.4,0-60.7-5.1-60.7-11.3H230z"/>
	</g>
	<path class="st10" d="M273.6,201.2L185,239.1c0,0,0,63.4,0,88.3c0,24.8,4,56.7,88.5,99.2c84.5-42.5,88.5-74.3,88.5-99.2
		c0-24.8,0-88.3,0-88.3L273.6,201.2z"/>
	<path class="st11" d="M362.1,239.1c0,0,0,63.4,0,88.3c0,24.8-4,56.7-88.5,99.2V201.2L362.1,239.1z"/>
	<polygon class="st12" points="263.2,356.3 219.4,313.2 236.4,295.8 263.2,322.1 310.7,275.4 327.8,292.7 	"/>
	<polygon class="st13" points="327.8,292.7 273.6,346.1 273.6,311.9 310.7,275.4 	"/>
	<path class="st12" d="M273.6,438.1l-4.6-2.3c-39.4-19.8-65.5-39.3-79.8-59.5c-12.7-18-14.5-34.2-14.5-48.9v-95.1l98.9-42.3
		l98.9,42.3v95.1c0,14.8-1.8,30.9-14.5,48.9c-14.3,20.2-40.4,39.7-79.8,59.5L273.6,438.1z M195.4,245.9v81.4
		c0,18.9,0,47.2,78.2,87.6c78.2-40.4,78.2-68.7,78.2-87.6v-81.4l-78.2-33.5L195.4,245.9z"/>
	<path class="st13" d="M273.6,189.9v22.5l78.2,33.5v81.4c0,18.9,0,47.2-78.2,87.6v23.2l4.7-2.3c39.4-19.8,65.5-39.3,79.8-59.5
		c12.7-18,14.5-34.2,14.5-48.9v-95.1L273.6,189.9z"/>
</g>
<g class="st0">
	<g class="st1">
		<defs>
			<circle id="SVGID_3_" cx="195.1" cy="209" r="177.1"/>
		</defs>
		<use xlink:href="#SVGID_3_"  style="overflow:visible;fill:#FFFFFF;"/>
		<clipPath id="SVGID_4_">
			<use xlink:href="#SVGID_3_"  style="overflow:visible;"/>
		</clipPath>
		<g class="st14">
			<path class="st3" d="M377.5,303.8H5.8c-2.2,0-4-1.8-4-4v-21.2c0-2.2,1.8-4,4-4h371.7c2.2,0,4,1.8,4,4v21.2
				C381.5,302,379.7,303.8,377.5,303.8z"/>
			<rect x="26.2" y="303.8" class="st15" width="361.5" height="136.2"/>
			<rect x="26.2" y="324.3" class="st16" width="361.5" height="115.6"/>
		</g>
	</g>
	<g class="st1">
		<path class="st9" d="M263.3,192.5c0,0-4.3-25.1,3.7-53.6s32.1-91.3-4.8-119.3S204.9,7.1,202.5,8.5s-3.1,3.1-3.1,3.1
			s-11.1-6.6-21.2,2.6c-10.1,9.1-28.9,22.3-27,66.2c1.8,43.9,16.3,75,28.9,85c12.6,10,12.6,10,12.6,10"/>
		<g>
			<path class="st5" d="M232.4,145c-0.9-1.9-1.5-4.2-2-6.7v-27.1h-27.9v27.1c-0.4,2.4-1.1,4.5-1.9,6.4c4.8,3.8,10.3,6.2,16.1,6.2
				C222.4,150.9,227.7,148.6,232.4,145z"/>
			<g>
				<path class="st6" d="M200.7,144.7c-6,14-20.9,14.4-28.1,17.5c-14.7,6.3-22.1,25.8-31.1,44.3c-4.8,9.7-18.4,26.2-24.9,34.3
					c-6.5,8.1-6,19.9-6,19.9l2.3,13.6c0,0,28.5-26.7,38.7-39.8c10.2-13.1,21.7-30.7,21.7-30.7l22.1,18.5l4.1,54.2l16.6,1.1V150.9
					C210.6,150.7,205.3,148.4,200.7,144.7z"/>
				<path class="st5" d="M282.5,206.5c-5.1-19.9-7.4-37.9-22.1-44.3c-7.1-3.1-21.9-3.5-28-17.3c-4.7,3.7-10,5.9-15.7,5.9
					c-0.2,0-0.4,0-0.6,0v126.8l68.2,4.7C284.4,282.4,287.6,226.4,282.5,206.5z"/>
			</g>
		</g>
		<g>
			<g>
				<g>
					<path class="st17" d="M46.3,140.1H30.7c-9.3,0-16.9,7.5-16.9,16.6v101.7c0,9.1,7.6,16.6,16.9,16.6H114
						c9.3,0,16.9-7.5,16.9-16.6V156.7c0-9.1-7.6-16.6-16.9-16.6h-14"/>
					<polyline class="st17" points="100,140.1 100,136.3 46.3,136.3 46.3,140.1 					"/>
				</g>
			</g>
			<polyline class="st18" points="46.3,154.6 31.3,154.6 31.3,257.7 113.4,257.7 113.4,154.6 100,154.6 			"/>
			<rect x="46.3" y="135.6" class="st3" width="53.6" height="22.1"/>
			<polygon class="st17" points="89,241.8 74.5,223.3 81.7,217.9 86.9,224.5 97.7,200.9 106,204.6 			"/>
		</g>
		<path class="st19" d="M216.1,204.2c0,0,10.6,0,24.4-8.5c13.8-8.5,14.7-35.1,14.7-35.1l5.1,1.4c0,0-3.2,14.7-0.5,34.4
			c2.8,19.7,11.7,31.5,10.1,44.5c-1.8,15.9-14.7,36.8-14.7,36.8h-39.2"/>
		<path class="st20" d="M216.8,204.2c0,0-10.6,0-24.4-8.5c-13.8-8.5-14.7-35.1-14.7-35.1l-5.1,1.4c0,0,3.2,14.7,0.5,34.4
			s-11.7,31.5-10.1,44.5c1.8,15.9,14.7,36.8,14.7,36.8h39.2"/>
		<g>
			<path class="st6" d="M216.5,44.5c-19.4,0-35.2,0-35.2,46.1c0,19.8,15.8,46.1,35.2,46.1c0.1,0,0.2,0,0.3,0V44.5
				C216.7,44.5,216.6,44.5,216.5,44.5z"/>
			<path class="st5" d="M251.6,90.6c0-45.8-15.6-46.1-34.9-46.1v92.1C236.1,136.3,251.6,109.6,251.6,90.6z"/>
		</g>
		<path class="st9" d="M251.6,59.4h-71c-6.6,0-12-5.4-12-12V35.6c0-6.6,5.4-12,12-12h71c6.6,0,12,5.4,12,12v11.8
			C263.6,54,258.2,59.4,251.6,59.4z"/>
		<path class="st6" d="M45,129.3c0,0,6.7-5.6,11.1-7.7c4.3-2.1,7.4,4.5,9.7,7.7c2.3,3.2,8.8,12.6,2.8,16.7s-15.7,7.7-20.7,3.6
			s-10.1-10.3-8.8-13.5S45,129.3,45,129.3z"/>
	</g>
	<path class="st21" d="M9.7,303.8h297c2.2,0,4-1.8,4-4v-21.2c0-2.2-1.8-4-4-4H9.7c-2.2,0-4,1.8-4,4v21.2
		C5.7,302,7.5,303.8,9.7,303.8z"/>
	<g class="st1">
		<g>
			<path d="M260.9,75H258c-0.8-2-1.9-3.4-2.8-4.3c-2.5-2.5-5.2-3.1-6-3.3c-2.4-0.5-6.3-0.6-10.2-0.5c0,0,0,0,0,0c0,0,0,0,0,0
				l-43.6,0c0,0,0,0,0,0c-4.2-0.1-8.4,0.1-11,0.5c-0.8,0.1-3.6,0.8-6,3.3c-1,1-2,2.4-2.8,4.3h-2.9c-1.5,0-2.7,1.2-2.7,2.7
				s1.2,2.7,2.7,2.7h1.7c0,0.4,0,0.7,0,1.1c0,11.8,8,18.1,15.3,18.9c0.8,0.1,1.5,0.1,2.3,0.1c5,0,9.9-1.8,13.7-5.1
				c3-2.6,6.4-7.2,7.8-15h6.5c1.4,7.8,4.8,12.4,7.8,15c3.8,3.3,8.7,5.1,13.7,5.1c0.8,0,1.5,0,2.3-0.1c7.4-0.8,15.3-7.1,15.3-18.9
				c0-0.4,0-0.7,0-1.1h1.7c1.5,0,2.7-1.2,2.7-2.7C263.6,76.3,262.4,75,260.9,75z"/>
		</g>
	</g>
</g>
<g class="st0">
	<g class="st1">
		<defs>
			<circle id="SVGID_5_" cx="182.6" cy="216.1" r="177.1"/>
		</defs>
		<use xlink:href="#SVGID_5_"  style="overflow:visible;fill:#FFFFFF;"/>
		<clipPath id="SVGID_6_">
			<use xlink:href="#SVGID_5_"  style="overflow:visible;"/>
		</clipPath>
		<g class="st22">
			<g>
				<path class="st4" d="M308.3,23.4l-8.2,2.7c-2.1,0.7-3.6,2.5-3.9,4.7l-5.3,37l57.9,134.1l23.2,11.6L315.7,27.3
					C314.8,24.1,311.4,22.3,308.3,23.4z"/>
				<path class="st23" d="M312.6,57.9c-2.3-5.8-8.9-8.6-14.7-6.2L213,86.6c-3.8,1.6-6.9,4.8-8.2,9l-0.3,0.9l-11.7,38.7l32.1,11.6
					l7.2-35.8l74.9-38.7C312.4,69.7,314.8,63.4,312.6,57.9z"/>
				<rect x="97.5" y="222" class="st24" width="115.8" height="29"/>
				<path class="st23" d="M236.5,227.8H74.4c-6.4,0-11.6-5.2-11.6-11.6v-40.5c0-6.4,5.2-11.6,11.6-11.6h156.4l10.3,25.9
					c0.8,2.1,1.2,4.2,1.2,6.5V222C242.3,225.2,239.7,227.8,236.5,227.8z"/>
				<path class="st25" d="M248.1,303.1H62.8c-16,0-29-13-29-29s13-29,29-29h185.3c16,0,29,13,29,29
					C277.1,290.1,264.1,303.1,248.1,303.1z"/>
				<path class="st24" d="M62.8,256.8c-9.6,0-17.4,7.8-17.4,17.4s7.8,17.4,17.4,17.4h185.3c9.6,0,17.4-7.8,17.4-17.4
					c0-9.6-7.8-17.4-17.4-17.4H62.8z"/>
				<path class="st26" d="M207.6,280H103.3c-3.2,0-5.8-2.6-5.8-5.8s2.6-5.8,5.8-5.8h104.2c3.2,0,5.8,2.6,5.8,5.8
					S210.8,280,207.6,280z"/>
				<path class="st24" d="M241.6,190.6l-15.4-51.3c-0.7-2.5-3-4.1-5.5-4.1h-30.4c-3.2,0-5.8,2.6-5.8,5.8v41.5c0,3.1,1.2,6,3.4,8.2
					l10.6,10.6c2.2,2.2,5.1,3.4,8.2,3.4h35.7v-9C242.3,193.9,242.1,192.3,241.6,190.6z"/>
				<g>
					<path class="st4" d="M120.7,193.1H86c-3.2,0-5.8-2.6-5.8-5.8c0-3.2,2.6-5.8,5.8-5.8h34.7c3.2,0,5.8,2.6,5.8,5.8
						C126.5,190.5,123.9,193.1,120.7,193.1z"/>
					<circle class="st26" cx="248.1" cy="274.2" r="17.4"/>
				</g>
				<circle class="st27" cx="248.1" cy="274.2" r="5.8"/>
				<circle class="st26" cx="62.8" cy="274.2" r="17.4"/>
				<circle class="st27" cx="62.8" cy="274.2" r="5.8"/>
				<g>
					<g>
						<path class="st9" d="M236.5,227.8H74.4c-6.4,0-11.6-5.2-11.6-11.6l0,0h179.5v5.8C242.3,225.2,239.7,227.8,236.5,227.8z"/>
						<path class="st9" d="M351.7,196h-10.3c-2.5,0-4.7,1.6-5.5,4L325,232.6c-0.8,2.4-3,4-5.5,4h-11.3c-3.2,0-5.8,2.6-5.8,5.8
							c0,3.2,2.6,5.8,5.8,5.8h43.4c14.4,0,26.1-11.7,26.1-26.1l0,0C377.8,207.7,366.1,196,351.7,196z"/>
					</g>
				</g>
				<path class="st25" d="M242.1,193.1c-0.1-0.8-0.3-1.6-0.5-2.4l-13.2-43.9H196v35.7l10.6,10.6L242.1,193.1L242.1,193.1z"/>
			</g>
			<g>
				<path class="st5" d="M288.5,298.9c-1.6,4.6-5.5,8.3-10.5,9.3l-24.1,5.1l-84.5,20.3l-20.1,1.2L52,323.1l-76.5,30.7l-14.8-52.3
					c-1.6,0.3-2.5,0.4-2.5,0.4l17.4,61.3L52,332.5l97.3,11.8l20.1-1.2l84.5-20.3l24.1-5.1c7.7-1.6,12.7-9.3,11-17
					C288.8,300.1,288.7,299.5,288.5,298.9z"/>
				<path class="st6" d="M52,323.1l97.3,11.8l20.1-1.2l84.5-20.3l24.1-5.1c5.1-1.1,8.9-4.8,10.5-9.3c-2.3-6.7-9.4-10.8-16.5-9.3
					l-39.8,8.5c-0.9,0.2-1.7,0.5-2.5,0.8c0,0-21.7,3.9-40.5,1.7c-18.7-2.3-28.3-23-28.3-23l-113.3-2.4c0,0-8.3,6.6-29,13.5
					c-18.4,6.1-49,11.4-57.9,12.9l14.8,52.3L52,323.1z"/>
			</g>
			<path class="st6" d="M121.9,287.9L60,297.6c-5.7,0.9-11.1-3.1-12-8.8l-2-9.1c-0.9-5.7,7.3-13.8,13-14.6l57.9-9.7
				c5.7-0.9,11.1,3.1,12,8.8l1.8,11.7C131.6,281.6,127.7,287,121.9,287.9z"/>
			<path class="st6" d="M172.1,288.6l-54.2-4.5c-6.6-0.5-11.5-6.4-11-13l0.4-4.8c0.5-6.6,6.4-11.5,13-11l54.2,4.5
				c6.6,0.5,11.5,6.4,11,13l-0.4,4.8C184.5,284.2,178.6,289.1,172.1,288.6z"/>
		</g>
		<circle class="st28" cx="182.6" cy="216.1" r="177.1"/>
	</g>
	<g class="st1">
		<path class="st4" d="M308.3,23.4l-8.2,2.7c-2.1,0.7-3.6,2.5-3.9,4.7l-5.3,37l57.9,134.1l23.2,11.6L315.7,27.3
			C314.8,24.1,311.4,22.3,308.3,23.4z"/>
		<path class="st23" d="M232.2,110.9l74.9-38.7c5.3-2.6,7.8-8.9,5.5-14.4c-2.3-5.8-8.9-8.6-14.7-6.2L213,86.6
			c-3.8,1.6-6.9,4.8-8.2,9l-0.3,0.9"/>
		<path class="st9" d="M236.5,227.8H74.4c-6.4,0-11.6-5.2-11.6-11.6l0,0h179.5v5.8C242.3,225.2,239.7,227.8,236.5,227.8z"/>
		<path class="st9" d="M351.7,196h-10.3c-2.5,0-4.7,1.6-5.5,4L325,232.6c-0.8,2.4-3,4-5.5,4h-11.3c-3.2,0-5.8,2.6-5.8,5.8
			c0,3.2,2.6,5.8,5.8,5.8h43.4c14.4,0,26.1-11.7,26.1-26.1l0,0C377.8,207.7,366.1,196,351.7,196z"/>
	</g>
</g>
<g>
	<g>
		<defs>
			<circle id="SVGID_7_" cx="189.8" cy="214.9" r="177.1"/>
		</defs>
		<use xlink:href="#SVGID_7_"  style="overflow:visible;fill:#FFFFFF;"/>
		<clipPath id="SVGID_8_">
			<use xlink:href="#SVGID_7_"  style="overflow:visible;"/>
		</clipPath>
		<g class="st29">
			<g>
				<path class="st6" d="M343.4,199.9c-7.5-6.3-14.1-27.3-15.1-32.9c-1-5.6,6.4-27.3,6.2-33.3c-0.2-6-3.6-19-11.6-26.7
					c-5.6-5.3-23.8-7.9-34.4-9c-4.6-0.5-7.8-0.7-7.8-0.7s-11.3,3.3-14.8,9.5c-3.2,5.7-4.2,15.6-4.2,15.6l2.8,6.1l-11.9,17.8
					l10.3,3.2l0.7,12.3l-6.3,21.9c0,0,19.8,2.9,22.1,4.2c2.4,1.4,14.3,24.1,14.3,24.1l45.7-2.3l11.2,4.8l0,0
					C350.7,214.7,350.9,206.2,343.4,199.9z"/>
				<path class="st5" d="M257.4,183.8c0,0,19.8,2.9,22.1,4.2c2.4,1.4,14.3,24.1,14.3,24.1l45.7-2.3l11.2,4.8l0,0
					c0,0,0.2-8.5-7.3-14.8c-7.5-6.3-14.1-27.3-15.1-32.9l-5-17.1l-33.7,17.3L257.4,183.8z"/>
				<g>
					<g>
						<path class="st6" d="M287.2,220.6c0,0-18.2,28.4-27,31c-8.7,2.7-22,4.3-22,4.3l1.8,30.6c0,0,23.9-1.5,30.4-3.9
							s27.9-18.4,27.9-18.4l-8.5-43.8"/>
						<path class="st3" d="M274.7,153.2l-11.7-3.6l-1.9,13.5l-6.8,19.7l19,8.6l29.7-7.1l15.6-21.9l5.9,7.5l14.9-0.3
							c0,0-2.5-9.4,0.6-15.7c3.2-6.2,5.3-20,3.2-30.2c-2.2-10.3-5.5-27.4-5.5-27.4l-69.8,3.6l-8.6,10.3l9.8,2.9l10.5-1.7l23.3,8.6
							c0,0,6.6-5.7,11.3,0.5c2.8,3.6-1.5,11.6-4.7,13.6c-3.2,2-6.7,1.9-6.7,1.9l-7.4,7.3L274.7,153.2z"/>
						<path class="st9" d="M343.7,107.7C343.7,107.8,343.7,107.8,343.7,107.7C343.7,107.8,343.7,107.8,343.7,107.7
							C343.7,107.8,343.7,107.8,343.7,107.7z"/>
						<g>
							<path class="st4" d="M266.6,95c3.8-12,12.7-21.5,23.9-25.8c-1.2,14.1,8.3,28,24,38l0,2.4c-3.4,0-6.9-0.1-10.4-0.3
								c-4.3-0.2-8.4-0.4-12.3-0.8l0.3-3.1c0.4-3.9-2.1-7.4-5.4-7.8c-3.3-0.4-6.4,2.5-6.8,6.4l-0.3,3.2c-5.8-0.8-10.9-1.7-14.8-2.8
								C265,101.1,265.6,98,266.6,95z"/>
							<path class="st9" d="M263.7,95.5c-0.4,2.3-0.7,4.7-0.8,7.1c0,0.4,0,0.9,0,1.3c-4.7-1.4-7.4-2.9-7.4-4.5
								C255.6,97.8,258.6,96.5,263.7,95.5z"/>
							<path class="st9" d="M263.7,95.5c3.1-16.2,14.2-29,28.4-33.6c-0.6,1.6-1,3.3-1.3,5c-0.1,0.8-0.2,1.5-0.3,2.3
								C279.3,73.5,270.4,83,266.6,95c-0.9,3-1.6,6.2-1.8,9.4c-0.7-0.2-1.3-0.3-1.9-0.5c0-0.4,0-0.9,0-1.3
								C263,100.2,263.3,97.8,263.7,95.5z"/>
							<path class="st9" d="M286.7,97.6c3.3,0.4,5.8,3.9,5.4,7.8l-0.3,3.1c-4.3-0.4-8.4-0.8-12.2-1.3l0.3-3.2
								C280.3,100.1,283.3,97.2,286.7,97.6z"/>
							<path class="st9" d="M318.6,109.6c-1.3,0-2.7,0-4.1,0l0-2.4C315.8,108,317.2,108.8,318.6,109.6z"/>
							<path class="st8" d="M342.7,98.3c0.7,3.1,1,6.2,1,9.5c0,0,0,0,0,0c-4.5,0.8-10.2,1.3-16.9,1.6c0,0,0-0.1,0-0.1l0-3.3
								c0-3.9-2.8-7-6.2-6.9l0,0c-3.4,0.1-6.1,3.4-6.1,7.3l0,0.8c-15.7-10-25.1-23.9-24-38c4.8-1.8,10-2.8,15.4-2.5
								C324,67.4,338.8,80.8,342.7,98.3z"/>
							<path class="st4" d="M343.5,98.5c0.3,2.5,0.4,5,0.3,7.6c0,0.6-0.1,1.1-0.1,1.7c0-3.3-0.3-6.4-1-9.5
								c-3.9-17.5-18.6-30.8-36.7-31.6c-5.4-0.2-10.6,0.7-15.4,2.5c0.1-0.8,0.2-1.5,0.3-2.3c0.3-1.7,0.7-3.4,1.3-5
								c4.1-1.3,8.6-2,13.1-1.8C325.2,60.9,341.1,77.5,343.5,98.5z"/>
							<path class="st9" d="M314.5,106.3c0-3.9,2.7-7.2,6.1-7.3l0,0c3.4-0.1,6.1,3,6.2,6.9l0,3.3c0,0,0,0.1,0,0.1
								c-2.6,0.1-5.3,0.2-8.2,0.2c-1.4-0.8-2.8-1.6-4.1-2.4L314.5,106.3z"/>
						</g>
					</g>
				</g>
				<g>
					<path class="st9" d="M360.6,243.1c-3.6-27.3-6.9-40.8-24.2-47.4l-9.6-1.3c7.7,7.1,12,17.7,10.5,28.9l-9.2,119.6
						c-2.4,18.1-19.2,31-37.4,28.6l-22.4-3c4.9,4.5,11.1,7.6,18.1,8.5l31.9,4.3c18.1,2.4,34.9-10.4,37.4-28.6
						C355.7,352.6,364.6,272.8,360.6,243.1z"/>
					<path class="st4" d="M328.1,342.8l9.2-119.6c1.5-11.1-2.8-21.7-10.5-28.9l-11.8-1.6c-18.1-2.4-44.2,17.5-46.7,35.7l-10.5,111.1
						c-1.5,11.1-1.8,52.1,5.9,59.2l27-27.4C308.9,373.8,325.7,361,328.1,342.8z"/>
				</g>
			</g>
			<path class="st6" d="M96.2,191.8c0.2-0.3,0.4,0.5,0,0.5s-0.5-0.5-0.5-0.9c0-2.4-0.1-4.9-0.1-7.3c0-2.4-0.1-4.8,0.8-7
				c1.6-4.4,6.7-7.2,11.2-6.3c3.9,0.8,7.7-2.5,9.1-6.3c1.4-3.8,1.2-7.9,1.5-12c0.4-4,1.6-8.3,4.9-10.6c2.5-1.8,0.4-3.4-1.4-6
				c-1.7-2.5-5.9-5.1-6.7-8.1c-0.7-2.5,2.7-6.3,2.7-6.3c-1-7-3.1-15.5-7.7-20.4c-3-3.3-7.5-4.3-11.9-4.6
				c-14.9-0.9-25.6,5.3-35.6,16.3s-14.7,26.7-12.4,41.4c0.4,2.8,1.1,5.6,2.4,8.1c0.7,1.2,1.5,2.4,2.1,3.7c1.1,2.1,5.9,4.5,6.4,6.8
				c2.3,10.5,0.3,21.9-4.5,31.5c3.5,1.4,7.4,1.8,11.1,1"/>
			<path class="st3" d="M66.8,167.4c0.4-1.8,0.7-3.7,0.3-5.4c-0.8-3-3.6-4.9-5.5-7.4c-2.5-3.2-3.4-7.8-2-11.6
				c1.4-3.8,5.3-6.8,9.4-6.7c4.1,0,8,3.3,8.5,7.3c0.2,1.5-0.1,3.1,0.4,4.6c1.1,3.3,5.9,4.1,8.8,2.2c2.9-1.9,4.2-5.5,4.6-9
				c0.5-4.4-0.2-8.9,0.1-13.3c0.2-4.4,1.5-9.2,5-11.9c3.3-2.6,7.8-2.9,12-3.6c4.2-0.7,8.7-2.3,10.4-6.2c1.8-4.1-0.5-8.9-3.5-12.2
				c-7.7-8.2-19.9-14.2-31.1-12.9C73,82.6,62.6,83.8,52.6,89c-6.5,3.4-13.3,14.1-16.9,20.5c-2.7,4.8-3.3,10.4-3.6,15.9
				c-0.4,7.2-0.5,14.7,2.4,21.4c1.4,3.3,3.5,6.2,4.7,9.5c1.8,4.6,2,9.6,1.3,14.5c-1,7.3-0.1,17.5,9.9,15.4
				C60,184.1,64.8,176.4,66.8,167.4z"/>
			<g>
				<path class="st19" d="M38.5,240.3c3.6-27.3,6.9-40.8,24.2-47.4l9.6-1.3c-7.7,7.1-12,17.7-10.5,28.9L71,340
					c2.4,18.1,19.2,31,37.4,28.6l22.4-3c-4.9,4.5-7.6,35-14.7,36l-35.4-23.2c-18.1,2.4-34.9-10.4-37.4-28.6
					C43.4,349.8,34.6,270,38.5,240.3z"/>
				<path class="st20" d="M71,340L61,220.6c-1.5-11.1,2.1-21.7,8.8-28.6l15.1-1.4c16-2.1,34.6,18.2,37.1,36.3l11.3,154.6
					c1.5,11.1-7.2,22.3-13.9,29.3l-15-16.8C88.5,396.1,73.5,358.2,71,340z"/>
			</g>
			<path class="st19" d="M160.3,252.5c0,0,5.4,8.7-24.7-1.1s-38.4-39.6-47-51.7C80,187.7,47,186.1,43.8,215.8
				c-3.1,29.7,39.9,66.5,69.6,73.9c31.3,7.8,37.3-1,37.3-1"/>
			<g>
				<path class="st6" d="M230,256l-5.1-4.5c-2.1-1.9-4.8-2.9-7.6-2.9h-9v15.7h0l0,0l0,0h-4.9v25h9.8l30.8-2.7V256H230z"/>
				<path class="st5" d="M226.4,289.2c0-0.3,0-0.6,0-0.8c0-2-0.6-3.9-1.8-5.5l-16.9-19.3l-1.4,0.6h2h0l0,0l0,0h-4.9v25h9.8H226.4z"
					/>
				<g>
					<g id="XMLID_2_">
						<g>
							<path class="st30" d="M211.2,289.7c1.7,2.4,1.1,5.7-1.3,7.4c-0.9,0.7-2,1-3.1,1c-1.7,0-3.3-0.8-4.4-2.2l-0.6-0.8
								c1.7,2.4,1.2,5.7-1.2,7.5c-0.9,0.7-2,1-3.1,1c-1.7,0-3.3-0.8-4.4-2.2l-0.3-0.5c0,0.5,0.5,1.8-1.9,3.5c-0.9,0.7-2,1-3.1,1
								c-1.7,0-3.3-0.8-4.4-2.2l-11.7-13.5c-0.1-0.2-0.4-0.3-0.6-0.3l-19.6,0v-33.7h14.8l1.6-1.7c2.2-2.3,5.2-3.5,8.3-3.5h17.1
								l13,13.9l14.9,21c0.7,0.9,1,2,1,3.1c0,1.7-0.8,3.3-2.2,4.4c-2.4,1.7-5.7,1.2-7.5-1.2L211.2,289.7z"/>
						</g>
					</g>
				</g>
				<g>
					<g id="XMLID_1_">
						<g>
							<path class="st31" d="M186.8,299.3c1,1.5,2.7,2.2,4.4,2.2c0.6,0,1.2-0.2,1.6-0.8c0.5,1.5-0.8,2.7-1.9,3.5c-0.9,0.7-2,1-3.1,1
								c-1.7,0-3.3-0.8-4.4-2.2l-11.7-13.5c-0.1-0.2-0.4-0.3-0.6-0.3l-19.6,0v-33.7h14.8l0.2-0.2v26.4c0,2.1,1.7,3.8,3.8,3.8l3,0
								c1,0,2,0.5,2.6,1.3L186.8,299.3z"/>
							<path class="st20" d="M162.4,254.5v36.1c0,1.1-0.9,2-2,2H147c-0.6,0-1.2-0.5-1.2-1.2v-37.8c0-0.6,0.5-1.2,1.2-1.2h13.3
								C161.4,252.5,162.4,253.4,162.4,254.5L162.4,254.5z"/>
							<path class="st19" d="M160.3,285.2H147c-0.6,0-1.2-0.5-1.2-1.2v7.5c0,0.6,0.5,1.2,1.2,1.2h13.3c1.1,0,2-0.9,2-2v-7.5
								C162.4,284.2,161.4,285.2,160.3,285.2z"/>
						</g>
					</g>
				</g>
				<path class="st31" d="M206.4,264.2l-13-13.9h-5.5l-10.3,12.1c-1.4,1.6-2.1,3.7-2.1,5.8c0,2.4,0.9,4.6,2.6,6.3
					c1.7,1.7,3.9,2.6,6.3,2.6c2,0,4-0.7,5.6-2l8.4-6.7h11L206.4,264.2z"/>
				<path class="st6" d="M208.3,248.5h-11c-1.5,0-3,0.7-4,1.8l-12.7,14.8c-0.8,0.9-1.1,2-1.1,3.1c0,1.2,0.5,2.4,1.4,3.3
					c1.7,1.7,4.4,1.9,6.3,0.3l9-7.2c0.3-0.3,0.7-0.4,1.2-0.4h10.9L208.3,248.5L208.3,248.5z"/>
			</g>
		</g>
	</g>
	<g>
		<g>
			<g>
				<g>
					<path class="st3" d="M274.7,153.2l-11.7-3.6l-1.9,13.5l-6.8,19.7l19,8.6l29.7-7.1l15.6-21.9l5.9,7.5l14.9-0.3
						c0,0-2.5-9.4,0.6-15.7c3.2-6.2,5.3-20,3.2-30.2c-2.2-10.3-5.5-27.4-5.5-27.4l-69.8,3.6l-8.6,10.3l9.8,2.9l10.5-1.7l23.3,8.6
						c0,0,6.6-5.7,11.3,0.5c2.8,3.6-1.5,11.6-4.7,13.6c-3.2,2-6.7,1.9-6.7,1.9l-7.4,7.3L274.7,153.2z"/>
					<path class="st9" d="M343.7,107.7C343.7,107.8,343.7,107.8,343.7,107.7C343.7,107.8,343.7,107.8,343.7,107.7
						C343.7,107.8,343.7,107.8,343.7,107.7z"/>
					<g>
						<path class="st4" d="M266.6,95c3.8-12,12.7-21.5,23.9-25.8c-1.2,14.1,8.3,28,24,38l0,2.4c-3.4,0-6.9-0.1-10.4-0.3
							c-4.3-0.2-8.4-0.4-12.3-0.8l0.3-3.1c0.4-3.9-2.1-7.4-5.4-7.8c-3.3-0.4-6.4,2.5-6.8,6.4l-0.3,3.2c-5.8-0.8-10.9-1.7-14.8-2.8
							C265,101.1,265.6,98,266.6,95z"/>
						<path class="st9" d="M263.7,95.5c-0.4,2.3-0.7,4.7-0.8,7.1c0,0.4,0,0.9,0,1.3c-4.7-1.4-7.4-2.9-7.4-4.5
							C255.6,97.8,258.6,96.5,263.7,95.5z"/>
						<path class="st9" d="M263.7,95.5c3.1-16.2,14.2-29,28.4-33.6c-0.6,1.6-1,3.3-1.3,5c-0.1,0.8-0.2,1.5-0.3,2.3
							C279.3,73.5,270.4,83,266.6,95c-0.9,3-1.6,6.2-1.8,9.4c-0.7-0.2-1.3-0.3-1.9-0.5c0-0.4,0-0.9,0-1.3
							C263,100.2,263.3,97.8,263.7,95.5z"/>
						<path class="st9" d="M286.7,97.6c3.3,0.4,5.8,3.9,5.4,7.8l-0.3,3.1c-4.3-0.4-8.4-0.8-12.2-1.3l0.3-3.2
							C280.3,100.1,283.3,97.2,286.7,97.6z"/>
						<path class="st9" d="M318.6,109.6c-1.3,0-2.7,0-4.1,0l0-2.4C315.8,108,317.2,108.8,318.6,109.6z"/>
						<path class="st8" d="M342.7,98.3c0.7,3.1,1,6.2,1,9.5c0,0,0,0,0,0c-4.5,0.8-10.2,1.3-16.9,1.6c0,0,0-0.1,0-0.1l0-3.3
							c0-3.9-2.8-7-6.2-6.9l0,0c-3.4,0.1-6.1,3.4-6.1,7.3l0,0.8c-15.7-10-25.1-23.9-24-38c4.8-1.8,10-2.8,15.4-2.5
							C324,67.4,338.8,80.8,342.7,98.3z"/>
						<path class="st4" d="M343.5,98.5c0.3,2.5,0.4,5,0.3,7.6c0,0.6-0.1,1.1-0.1,1.7c0-3.3-0.3-6.4-1-9.5
							c-3.9-17.5-18.6-30.8-36.7-31.6c-5.4-0.2-10.6,0.7-15.4,2.5c0.1-0.8,0.2-1.5,0.3-2.3c0.3-1.7,0.7-3.4,1.3-5
							c4.1-1.3,8.6-2,13.1-1.8C325.2,60.9,341.1,77.5,343.5,98.5z"/>
						<path class="st9" d="M314.5,106.3c0-3.9,2.7-7.2,6.1-7.3l0,0c3.4-0.1,6.1,3,6.2,6.9l0,3.3c0,0,0,0.1,0,0.1
							c-2.6,0.1-5.3,0.2-8.2,0.2c-1.4-0.8-2.8-1.6-4.1-2.4L314.5,106.3z"/>
					</g>
				</g>
			</g>
		</g>
		<g>
			<g>
				<path class="st6" d="M311.7,400.3c-2.6,1.7-13.3,1.9-19.7,1.9s-6.8-8.8-7.5-11.5c-0.3-1.3-0.5-9.1-0.6-16.7
					c3.4-1.5,6.9-2.4,6.9-2.4l15.8,1.7l18.7-29.5l8.8-35.2l-4.4-31.2l21.8-11.7c0,0,11.4,30,4.1,68.7c-6.9,36.3-33.4,57.6-36.7,60
					l-0.1-0.1C318.9,394.4,314.3,398.6,311.7,400.3z"/>
				<path class="st5" d="M310,406.5c-4,2.9-19.3,5.3-23.3,4.2c-4-1.1-5.6-7.9-6.8-13.4c-1.2-5.5-2.6-14.3-2.2-18.3
					c0.2-1.9,3.1-3.6,6.2-4.9c0.1,7.6,0.3,15.3,0.6,16.7c0.6,2.7,1.1,11.5,7.5,11.5s17.1-0.2,19.7-1.9c2.6-1.7,7.2-5.9,7.2-5.9
					l0.1,0.1c-0.2,0.2-0.3,0.2-0.3,0.2S314,403.6,310,406.5z"/>
			</g>
			<g>
				<path class="st6" d="M339.3,277.2c0,0,0.2,0.7,0.6,2l-9.1,3.6L339.3,277.2z"/>
				<path class="st6" d="M295.9,376.2c0,0,2.7,13,3.7,16.5c0.4,1.3,1.5,2.4,3,3c-3.6,0.6-6.8-1.1-7.5-3.5c-1-3.5-3.7-16.5-3.7-16.5
					s-0.1-0.1-0.3-0.1C294.3,375.5,295.9,376.2,295.9,376.2z"/>
				<path class="st6" d="M283.8,370.3c1.8-1.5,6.6-6,9.9-7c2.1-0.6,5,0.4,6.9,1.3c-0.8-0.3-1.7-0.4-2.5-0.1c-3.3,1-7.9,5.2-9.8,6.3
					c-1.5,0.8-2.3,5.9-0.7,7c-0.7,0-1.4,0-2.3,0C281.6,378.1,281.9,371.8,283.8,370.3z"/>
				<path class="st6" d="M314,289.5l16.8-6.7l-16,10.7C314.3,291,314,289.5,314,289.5z"/>
				<path class="st6" d="M300.5,364.6c0.7,0.2,1.4,0.6,2,1c0,0,0,0,0,0S301.7,365.1,300.5,364.6z"/>
				<path class="st6" d="M332.6,357.4c4.5-8.2,10.2-23.6,11.5-39.6c1.3-16.2-2.7-32.9-4.2-38.6l3.9-1.6c0,0,6.5,20.8,4.8,40.6
					c-1.3,16-7,31.4-11.5,39.6c-4.5,8.2-20.3,32-25.3,36.1c-3.1,2.6-6.7,2.8-9.2,1.7c1.6-0.3,3.2-1,4.7-2.2
					C312.3,389.4,328.1,365.6,332.6,357.4z"/>
				<path class="st6" d="M291.1,375.6c-0.2,0-0.4,0-0.6,0c-0.9,0.1-1.7-0.1-2.2-0.5C289.7,375.2,290.6,375.5,291.1,375.6z"/>
				<path class="st6" d="M288.3,370.7c1.9-1.1,6.5-5.3,9.8-6.3c0.8-0.2,1.6-0.1,2.5,0.1c1.2,0.5,2,1,2,1s0,0,0,0
					c1.8,1.2,3.1,2.7,3.1,2.7s11.4-15.2,12.6-34.5c0.9-14.6-2-32.4-3.4-40.3l16-10.7l9.1-3.6c1.6,5.7,5.6,22.4,4.2,38.6
					c-1.3,16-7,31.4-11.5,39.6c-4.5,8.2-20.3,32-25.3,36.1c-1.5,1.3-3.1,1.9-4.7,2.2c-1.5-0.6-2.6-1.7-3-3c-1-3.5-3.7-16.5-3.7-16.5
					s-1.6-0.8-4.8-0.6c-0.4-0.2-1.4-0.4-2.8-0.5C286.7,374.1,286.8,371.6,288.3,370.7z"/>
				<path class="st5" d="M305.7,368.2c0,0-1.4-1.5-3.1-2.7c0.1-0.1,10.1-13,11.2-32.3c1.1-19.3-2.9-37.1-2.9-37.1l9.3-8
					c1.4,7.8,2,26.3,1.1,40.9C320.1,348.4,305.7,368.2,305.7,368.2z"/>
			</g>
			<path class="st4" d="M351.5,265.7c0,0-12.8,12.7-23.7,20.9s-18.4,9.4-18.4,9.4s-3-10.4-5.3-19.3c-2.2-8.9-3-14.4-3-14.4
				s-0.9-4.8,2.6-7.7c3.5-3,10.3,5.8,26.8,10.2C343.5,268.3,351.5,265.7,351.5,265.7z"/>
			<path class="st4" d="M295.7,229.2c0,0,10-11.2,13-13.3c3-2.1,25.6-0.8,26.4,2.3c0.8,3.1,8.2,15.5,11.7,26.7
				c3.5,11.2,4.6,20.8,4.6,20.8s-19.9,17.3-31.4,22.4s-17.3-6.2-18-17.7s-8.9-21-7.5-27.4C295.9,236.7,295.7,229.2,295.7,229.2z"/>
		</g>
		<path class="st6" d="M96.2,191.8c0.2-0.3,0.4,0.5,0,0.5s-0.5-0.5-0.5-0.9c0-2.4-0.1-4.9-0.1-7.3c0-2.4-0.1-4.8,0.8-7
			c1.6-4.4,6.7-7.2,11.2-6.3c3.9,0.8,7.7-2.5,9.1-6.3c1.4-3.8,1.2-7.9,1.5-12c0.4-4,1.6-8.3,4.9-10.6c2.5-1.8,0.4-3.4-1.4-6
			c-1.7-2.5-5.9-5.1-6.7-8.1c-0.7-2.5,2.7-6.3,2.7-6.3c-1-7-3.1-15.5-7.7-20.4c-3-3.3-7.5-4.3-11.9-4.6
			c-14.9-0.9-25.6,5.3-35.6,16.3s-14.7,26.7-12.4,41.4c0.4,2.8,1.1,5.6,2.4,8.1c0.7,1.2,1.5,2.4,2.1,3.7c1.1,2.1,5.9,4.5,6.4,6.8
			c2.3,10.5,0.3,21.9-4.5,31.5c3.5,1.4,7.4,1.8,11.1,1"/>
		<path class="st3" d="M66.8,167.4c0.4-1.8,0.7-3.7,0.3-5.4c-0.8-3-3.6-4.9-5.5-7.4c-2.5-3.2-3.4-7.8-2-11.6
			c1.4-3.8,5.3-6.8,9.4-6.7c4.1,0,8,3.3,8.5,7.3c0.2,1.5-0.1,3.1,0.4,4.6c1.1,3.3,5.9,4.1,8.8,2.2c2.9-1.9,4.2-5.5,4.6-9
			c0.5-4.4-0.2-8.9,0.1-13.3c0.2-4.4,1.5-9.2,5-11.9c3.3-2.6,7.8-2.9,12-3.6c4.2-0.7,8.7-2.3,10.4-6.2c1.8-4.1-0.5-8.9-3.5-12.2
			c-7.7-8.2-19.9-14.2-31.1-12.9C73,82.6,62.6,83.8,52.6,89c-6.5,3.4-13.3,14.1-16.9,20.5c-2.7,4.8-3.3,10.4-3.6,15.9
			c-0.4,7.2-0.5,14.7,2.4,21.4c1.4,3.3,3.5,6.2,4.7,9.5c1.8,4.6,2,9.6,1.3,14.5c-1,7.3-0.1,17.5,9.9,15.4
			C60,184.1,64.8,176.4,66.8,167.4z"/>
		<path class="st19" d="M160.3,252.5c0,0,5.4,8.7-24.7-1.1s-38.4-39.6-47-51.7C80,187.7,47,186.1,43.8,215.8
			c-3.1,29.7,39.9,66.5,69.6,73.9c31.3,7.8,37.3-1,37.3-1"/>
		<g>
			<path class="st6" d="M230,256l-5.1-4.5c-2.1-1.9-4.8-2.9-7.6-2.9h-9v15.7h0l0,0l0,0h-4.9v25h9.8l30.8-2.7V256H230z"/>
			<path class="st5" d="M226.4,289.2c0-0.3,0-0.6,0-0.8c0-2-0.6-3.9-1.8-5.5l-16.9-19.3l-1.4,0.6h2h0l0,0l0,0h-4.9v25h9.8H226.4z"/>
			<g>
				<g id="XMLID_4_">
					<g>
						<path class="st30" d="M211.2,289.7c1.7,2.4,1.1,5.7-1.3,7.4c-0.9,0.7-2,1-3.1,1c-1.7,0-3.3-0.8-4.4-2.2l-0.6-0.8
							c1.7,2.4,1.2,5.7-1.2,7.5c-0.9,0.7-2,1-3.1,1c-1.7,0-3.3-0.8-4.4-2.2l-0.3-0.5c0,0.5,0.5,1.8-1.9,3.5c-0.9,0.7-2,1-3.1,1
							c-1.7,0-3.3-0.8-4.4-2.2l-11.7-13.5c-0.1-0.2-0.4-0.3-0.6-0.3l-19.6,0v-33.7h14.8l1.6-1.7c2.2-2.3,5.2-3.5,8.3-3.5h17.1
							l13,13.9l14.9,21c0.7,0.9,1,2,1,3.1c0,1.7-0.8,3.3-2.2,4.4c-2.4,1.7-5.7,1.2-7.5-1.2L211.2,289.7z"/>
					</g>
				</g>
			</g>
			<g>
				<g id="XMLID_3_">
					<g>
						<path class="st31" d="M186.8,299.3c1,1.5,2.7,2.2,4.4,2.2c0.6,0,1.2-0.2,1.6-0.8c0.5,1.5-0.8,2.7-1.9,3.5c-0.9,0.7-2,1-3.1,1
							c-1.7,0-3.3-0.8-4.4-2.2l-11.7-13.5c-0.1-0.2-0.4-0.3-0.6-0.3l-19.6,0v-33.7h14.8l0.2-0.2v26.4c0,2.1,1.7,3.8,3.8,3.8l3,0
							c1,0,2,0.5,2.6,1.3L186.8,299.3z"/>
						<path class="st20" d="M162.4,254.5v36.1c0,1.1-0.9,2-2,2H147c-0.6,0-1.2-0.5-1.2-1.2v-37.8c0-0.6,0.5-1.2,1.2-1.2h13.3
							C161.4,252.5,162.4,253.4,162.4,254.5L162.4,254.5z"/>
						<path class="st19" d="M160.3,285.2H147c-0.6,0-1.2-0.5-1.2-1.2v7.5c0,0.6,0.5,1.2,1.2,1.2h13.3c1.1,0,2-0.9,2-2v-7.5
							C162.4,284.2,161.4,285.2,160.3,285.2z"/>
					</g>
				</g>
			</g>
			<path class="st31" d="M206.4,264.2l-13-13.9h-5.5l-10.3,12.1c-1.4,1.6-2.1,3.7-2.1,5.8c0,2.4,0.9,4.6,2.6,6.3
				c1.7,1.7,3.9,2.6,6.3,2.6c2,0,4-0.7,5.6-2l8.4-6.7h11L206.4,264.2z"/>
			<path class="st6" d="M208.3,248.5h-11c-1.5,0-3,0.7-4,1.8l-12.7,14.8c-0.8,0.9-1.1,2-1.1,3.1c0,1.2,0.5,2.4,1.4,3.3
				c1.7,1.7,4.4,1.9,6.3,0.3l9-7.2c0.3-0.3,0.7-0.4,1.2-0.4h10.9L208.3,248.5L208.3,248.5z"/>
		</g>
	</g>
</g>
</svg>
