<?xml version="1.0" encoding="utf-8"?>
<!-- Generator: Adobe Illustrator 22.1.0, SVG Export Plug-In . SVG Version: 6.00 Build 0)  -->
<svg version="1.1" id="Слой_1" xmlns="http://www.w3.org/2000/svg" xmlns:xlink="http://www.w3.org/1999/xlink" x="0px" y="0px"
	 viewBox="0 0 380.4 437.5" style="enable-background:new 0 0 380.4 437.5;" xml:space="preserve">
<style type="text/css">
	.st0{display:none;}
	.st1{display:inline;}
	.st2{clip-path:url(#SVGID_2_);}
	.st3{fill:#262626;}
	.st4{fill:#FFAF2D;}
	.st5{fill:#EABE8D;}
	.st6{fill:#F4D0AB;}
	.st7{fill:none;}
	.st8{fill:#FFBA55;}
	.st9{fill:#EE9D29;}
	.st10{display:inline;fill:#1C7F98;}
	.st11{display:inline;fill:#2D6679;}
	.st12{display:inline;fill:#FFFFFF;}
	.st13{display:inline;fill:#C1E3E8;}
	.st14{clip-path:url(#SVGID_4_);}
	.st15{fill:#3A3A3A;}
	.st16{fill:#444343;}
	.st17{fill:#437282;}
	.st18{fill:#FFFFFF;}
	.st19{fill:#2D6679;}
	.st20{fill:#1C7F98;}
	.st21{display:inline;fill:#262626;}
	.st22{clip-path:url(#SVGID_6_);}
	.st23{fill:#FDCC32;}
	.st24{fill:#4D4D4D;}
	.st25{fill:#131313;}
	.st26{fill:#9C969E;}
	.st27{fill:#FFD164;}
	.st28{clip-path:url(#SVGID_6_);fill:none;}
</style>
<g class="st0">
	<g class="st1">
		<defs>
			<circle id="SVGID_1_" cx="183.5" cy="216" r="177.1"/>
		</defs>
		<use xlink:href="#SVGID_1_"  style="overflow:visible;fill:#FFFFFF;"/>
		<clipPath id="SVGID_2_">
			<use xlink:href="#SVGID_1_"  style="overflow:visible;"/>
		</clipPath>
		<g class="st2">
			<polygon class="st3" points="236.6,278 88.8,278 95.3,96 228.9,96 			"/>
			<path class="st4" d="M187.7,481h-53.3c-24,0-43.6-19.6-43.6-43.6L79.9,275.1c0-24,19.6-43.6,43.6-43.6h75.1
				c24,0,43.6,19.6,43.6,43.6l-10.9,162.3C231.2,461.4,211.6,481,187.7,481z"/>
			<path class="st5" d="M194.9,235.5c0-1.3-0.2-2.6-0.6-3.9h-66.6c-0.4,1.3-0.6,2.6-0.6,3.9c0,11.8,15.2,21.4,33.9,21.4
				S194.9,247.3,194.9,235.5z"/>
			<path class="st5" d="M142.3,169.1v49.4c0,7.2-5.9,13.1-13.1,13.1h65.7c-7.2,0-13.1-5.9-13.1-13.1v-49.4"/>
			<ellipse class="st6" cx="162" cy="139.6" rx="61.3" ry="77.8"/>
			<g>
				<polygon class="st7" points="228.3,110.3 228.3,110.3 223.3,110.3 223.9,110.3 				"/>
				<path class="st7" d="M95.8,110.3h4.4c0.1,0,0.5,0,0.6,0L95.8,110.3L95.8,110.3z"/>
			</g>
			<path class="st3" d="M189,49c0,0-14.5,66.9-42.4,95.5c-22.4,23-48.3,35.5-48.3,35.5l2.5-98.8L194.9,49"/>
			<path class="st3" d="M228.3,131.2c0,0-44.1,2.8-68.4-6.8c-19.6-7.7-33.7-20.2-33.7-20.2l60.3-18.1l41.4,30.6"/>
			<g>
				<path class="st4" d="M94,97.7v-27c0-33.3,27.2-60.5,60.5-60.5h15.1c33.3,0,60.5,27.2,60.5,60.5v27H94z"/>
				<path class="st8" d="M177.2,97.7v-84c0-7.4-6.1-13.4-13.4-13.4h-3.4c-7.4,0-13.4,6.1-13.4,13.4v84H177.2z"/>
				<path class="st8" d="M231.5,110.3H92.6c-3.2,0-5.8-2.6-5.8-5.8v-1c0-3.2,2.6-5.8,5.8-5.8h138.8c3.2,0,5.8,2.6,5.8,5.8v1
					C237.2,107.7,234.6,110.3,231.5,110.3z"/>
				<path class="st9" d="M229.1,110.3c0,6.2-27.2,11.3-60.5,11.3h-15.1c-33.3,0-60.5-5.1-60.5-11.3H229.1z"/>
			</g>
		</g>
	</g>
	<g class="st1">
		<path class="st4" d="M94.5,97.6V70.5c0-33.4,27.3-60.7,60.7-60.7h15.2c33.4,0,60.7,27.3,60.7,60.7v27.1H94.5z"/>
		<path class="st8" d="M177.9,97.6V13.4c0-7.4-6.1-13.5-13.5-13.5H161c-7.4,0-13.5,6.1-13.5,13.5v84.2H177.9z"/>
		<path class="st8" d="M232.3,110.2H93.1c-3.2,0-5.8-2.6-5.8-5.8v-1.1c0-3.2,2.6-5.8,5.8-5.8h139.2c3.2,0,5.8,2.6,5.8,5.8v1.1
			C238.1,107.6,235.5,110.2,232.3,110.2z"/>
		<path class="st9" d="M230,110.2c0,6.2-27.3,11.3-60.7,11.3h-15.2c-33.4,0-60.7-5.1-60.7-11.3H230z"/>
	</g>
	<path class="st10" d="M273.6,201.2L185,239.1c0,0,0,63.4,0,88.3c0,24.8,4,56.7,88.5,99.2c84.5-42.5,88.5-74.3,88.5-99.2
		c0-24.8,0-88.3,0-88.3L273.6,201.2z"/>
	<path class="st11" d="M362.1,239.1c0,0,0,63.4,0,88.3c0,24.8-4,56.7-88.5,99.2V201.2L362.1,239.1z"/>
	<polygon class="st12" points="263.2,356.3 219.4,313.2 236.4,295.8 263.2,322.1 310.7,275.4 327.8,292.7 	"/>
	<polygon class="st13" points="327.8,292.7 273.6,346.1 273.6,311.9 310.7,275.4 	"/>
	<path class="st12" d="M273.6,438.1l-4.6-2.3c-39.4-19.8-65.5-39.3-79.8-59.5c-12.7-18-14.5-34.2-14.5-48.9v-95.1l98.9-42.3
		l98.9,42.3v95.1c0,14.8-1.8,30.9-14.5,48.9c-14.3,20.2-40.4,39.7-79.8,59.5L273.6,438.1z M195.4,245.9v81.4
		c0,18.9,0,47.2,78.2,87.6c78.2-40.4,78.2-68.7,78.2-87.6v-81.4l-78.2-33.5L195.4,245.9z"/>
	<path class="st13" d="M273.6,189.9v22.5l78.2,33.5v81.4c0,18.9,0,47.2-78.2,87.6v23.2l4.7-2.3c39.4-19.8,65.5-39.3,79.8-59.5
		c12.7-18,14.5-34.2,14.5-48.9v-95.1L273.6,189.9z"/>
</g>
<g class="st0">
	<g class="st1">
		<defs>
			<circle id="SVGID_3_" cx="195.1" cy="209" r="177.1"/>
		</defs>
		<use xlink:href="#SVGID_3_"  style="overflow:visible;fill:#FFFFFF;"/>
		<clipPath id="SVGID_4_">
			<use xlink:href="#SVGID_3_"  style="overflow:visible;"/>
		</clipPath>
		<g class="st14">
			<path class="st3" d="M377.5,303.8H5.8c-2.2,0-4-1.8-4-4v-21.2c0-2.2,1.8-4,4-4h371.7c2.2,0,4,1.8,4,4v21.2
				C381.5,302,379.7,303.8,377.5,303.8z"/>
			<rect x="26.2" y="303.8" class="st15" width="361.5" height="136.2"/>
			<rect x="26.2" y="324.3" class="st16" width="361.5" height="115.6"/>
		</g>
	</g>
	<g class="st1">
		<path class="st9" d="M263.3,192.5c0,0-4.3-25.1,3.7-53.6s32.1-91.3-4.8-119.3S204.9,7.1,202.5,8.5s-3.1,3.1-3.1,3.1
			s-11.1-6.6-21.2,2.6c-10.1,9.1-28.9,22.3-27,66.2c1.8,43.9,16.3,75,28.9,85c12.6,10,12.6,10,12.6,10"/>
		<g>
			<path class="st5" d="M232.4,145c-0.9-1.9-1.5-4.2-2-6.7v-27.1h-27.9v27.1c-0.4,2.4-1.1,4.5-1.9,6.4c4.8,3.8,10.3,6.2,16.1,6.2
				C222.4,150.9,227.7,148.6,232.4,145z"/>
			<g>
				<path class="st6" d="M200.7,144.7c-6,14-20.9,14.4-28.1,17.5c-14.7,6.3-22.1,25.8-31.1,44.3c-4.8,9.7-18.4,26.2-24.9,34.3
					c-6.5,8.1-6,19.9-6,19.9l2.3,13.6c0,0,28.5-26.7,38.7-39.8c10.2-13.1,21.7-30.7,21.7-30.7l22.1,18.5l4.1,54.2l16.6,1.1V150.9
					C210.6,150.7,205.3,148.4,200.7,144.7z"/>
				<path class="st5" d="M282.5,206.5c-5.1-19.9-7.4-37.9-22.1-44.3c-7.1-3.1-21.9-3.5-28-17.3c-4.7,3.7-10,5.9-15.7,5.9
					c-0.2,0-0.4,0-0.6,0v126.8l68.2,4.7C284.4,282.4,287.6,226.4,282.5,206.5z"/>
			</g>
		</g>
		<g>
			<g>
				<g>
					<path class="st17" d="M46.3,140.1H30.7c-9.3,0-16.9,7.5-16.9,16.6v101.7c0,9.1,7.6,16.6,16.9,16.6H114
						c9.3,0,16.9-7.5,16.9-16.6V156.7c0-9.1-7.6-16.6-16.9-16.6h-14"/>
					<polyline class="st17" points="100,140.1 100,136.3 46.3,136.3 46.3,140.1 					"/>
				</g>
			</g>
			<polyline class="st18" points="46.3,154.6 31.3,154.6 31.3,257.7 113.4,257.7 113.4,154.6 100,154.6 			"/>
			<rect x="46.3" y="135.6" class="st3" width="53.6" height="22.1"/>
			<polygon class="st17" points="89,241.8 74.5,223.3 81.7,217.9 86.9,224.5 97.7,200.9 106,204.6 			"/>
		</g>
		<path class="st19" d="M216.1,204.2c0,0,10.6,0,24.4-8.5c13.8-8.5,14.7-35.1,14.7-35.1l5.1,1.4c0,0-3.2,14.7-0.5,34.4
			c2.8,19.7,11.7,31.5,10.1,44.5c-1.8,15.9-14.7,36.8-14.7,36.8h-39.2"/>
		<path class="st20" d="M216.8,204.2c0,0-10.6,0-24.4-8.5c-13.8-8.5-14.7-35.1-14.7-35.1l-5.1,1.4c0,0,3.2,14.7,0.5,34.4
			s-11.7,31.5-10.1,44.5c1.8,15.9,14.7,36.8,14.7,36.8h39.2"/>
		<g>
			<path class="st6" d="M216.5,44.5c-19.4,0-35.2,0-35.2,46.1c0,19.8,15.8,46.1,35.2,46.1c0.1,0,0.2,0,0.3,0V44.5
				C216.7,44.5,216.6,44.5,216.5,44.5z"/>
			<path class="st5" d="M251.6,90.6c0-45.8-15.6-46.1-34.9-46.1v92.1C236.1,136.3,251.6,109.6,251.6,90.6z"/>
		</g>
		<path class="st9" d="M251.6,59.4h-71c-6.6,0-12-5.4-12-12V35.6c0-6.6,5.4-12,12-12h71c6.6,0,12,5.4,12,12v11.8
			C263.6,54,258.2,59.4,251.6,59.4z"/>
		<path class="st6" d="M45,129.3c0,0,6.7-5.6,11.1-7.7c4.3-2.1,7.4,4.5,9.7,7.7c2.3,3.2,8.8,12.6,2.8,16.7s-15.7,7.7-20.7,3.6
			s-10.1-10.3-8.8-13.5S45,129.3,45,129.3z"/>
	</g>
	<path class="st21" d="M9.7,303.8h297c2.2,0,4-1.8,4-4v-21.2c0-2.2-1.8-4-4-4H9.7c-2.2,0-4,1.8-4,4v21.2
		C5.7,302,7.5,303.8,9.7,303.8z"/>
	<g class="st1">
		<g>
			<path d="M260.9,75H258c-0.8-2-1.9-3.4-2.8-4.3c-2.5-2.5-5.2-3.1-6-3.3c-2.4-0.5-6.3-0.6-10.2-0.5c0,0,0,0,0,0c0,0,0,0,0,0
				l-43.6,0c0,0,0,0,0,0c-4.2-0.1-8.4,0.1-11,0.5c-0.8,0.1-3.6,0.8-6,3.3c-1,1-2,2.4-2.8,4.3h-2.9c-1.5,0-2.7,1.2-2.7,2.7
				s1.2,2.7,2.7,2.7h1.7c0,0.4,0,0.7,0,1.1c0,11.8,8,18.1,15.3,18.9c0.8,0.1,1.5,0.1,2.3,0.1c5,0,9.9-1.8,13.7-5.1
				c3-2.6,6.4-7.2,7.8-15h6.5c1.4,7.8,4.8,12.4,7.8,15c3.8,3.3,8.7,5.1,13.7,5.1c0.8,0,1.5,0,2.3-0.1c7.4-0.8,15.3-7.1,15.3-18.9
				c0-0.4,0-0.7,0-1.1h1.7c1.5,0,2.7-1.2,2.7-2.7C263.6,76.3,262.4,75,260.9,75z"/>
		</g>
	</g>
</g>
<g>
	<g>
		<defs>
			<circle id="SVGID_5_" cx="182.6" cy="216.1" r="177.1"/>
		</defs>
		<use xlink:href="#SVGID_5_"  style="overflow:visible;fill:#FFFFFF;"/>
		<clipPath id="SVGID_6_">
			<use xlink:href="#SVGID_5_"  style="overflow:visible;"/>
		</clipPath>
		<g class="st22">
			<g>
				<path class="st4" d="M308.3,23.4l-8.2,2.7c-2.1,0.7-3.6,2.5-3.9,4.7l-5.3,37l57.9,134.1l23.2,11.6L315.7,27.3
					C314.8,24.1,311.4,22.3,308.3,23.4z"/>
				<path class="st23" d="M312.6,57.9c-2.3-5.8-8.9-8.6-14.7-6.2L213,86.6c-3.8,1.6-6.9,4.8-8.2,9l-0.3,0.9l-11.7,38.7l32.1,11.6
					l7.2-35.8l74.9-38.7C312.4,69.7,314.8,63.4,312.6,57.9z"/>
				<rect x="97.5" y="222" class="st24" width="115.8" height="29"/>
				<path class="st23" d="M236.5,227.8H74.4c-6.4,0-11.6-5.2-11.6-11.6v-40.5c0-6.4,5.2-11.6,11.6-11.6h156.4l10.3,25.9
					c0.8,2.1,1.2,4.2,1.2,6.5V222C242.3,225.2,239.7,227.8,236.5,227.8z"/>
				<path class="st25" d="M248.1,303.1H62.8c-16,0-29-13-29-29s13-29,29-29h185.3c16,0,29,13,29,29
					C277.1,290.1,264.1,303.1,248.1,303.1z"/>
				<path class="st24" d="M62.8,256.8c-9.6,0-17.4,7.8-17.4,17.4s7.8,17.4,17.4,17.4h185.3c9.6,0,17.4-7.8,17.4-17.4
					c0-9.6-7.8-17.4-17.4-17.4H62.8z"/>
				<path class="st26" d="M207.6,280H103.3c-3.2,0-5.8-2.6-5.8-5.8s2.6-5.8,5.8-5.8h104.2c3.2,0,5.8,2.6,5.8,5.8
					S210.8,280,207.6,280z"/>
				<path class="st24" d="M241.6,190.6l-15.4-51.3c-0.7-2.5-3-4.1-5.5-4.1h-30.4c-3.2,0-5.8,2.6-5.8,5.8v41.5c0,3.1,1.2,6,3.4,8.2
					l10.6,10.6c2.2,2.2,5.1,3.4,8.2,3.4h35.7v-9C242.3,193.9,242.1,192.3,241.6,190.6z"/>
				<g>
					<path class="st4" d="M120.7,193.1H86c-3.2,0-5.8-2.6-5.8-5.8c0-3.2,2.6-5.8,5.8-5.8h34.7c3.2,0,5.8,2.6,5.8,5.8
						C126.5,190.5,123.9,193.1,120.7,193.1z"/>
					<circle class="st26" cx="248.1" cy="274.2" r="17.4"/>
				</g>
				<circle class="st27" cx="248.1" cy="274.2" r="5.8"/>
				<circle class="st26" cx="62.8" cy="274.2" r="17.4"/>
				<circle class="st27" cx="62.8" cy="274.2" r="5.8"/>
				<g>
					<g>
						<path class="st9" d="M236.5,227.8H74.4c-6.4,0-11.6-5.2-11.6-11.6l0,0h179.5v5.8C242.3,225.2,239.7,227.8,236.5,227.8z"/>
						<path class="st9" d="M351.7,196h-10.3c-2.5,0-4.7,1.6-5.5,4L325,232.6c-0.8,2.4-3,4-5.5,4h-11.3c-3.2,0-5.8,2.6-5.8,5.8
							c0,3.2,2.6,5.8,5.8,5.8h43.4c14.4,0,26.1-11.7,26.1-26.1l0,0C377.8,207.7,366.1,196,351.7,196z"/>
					</g>
				</g>
				<path class="st25" d="M242.1,193.1c-0.1-0.8-0.3-1.6-0.5-2.4l-13.2-43.9H196v35.7l10.6,10.6L242.1,193.1L242.1,193.1z"/>
			</g>
			<g>
				<path class="st5" d="M288.5,298.9c-1.6,4.6-5.5,8.3-10.5,9.3l-24.1,5.1l-84.5,20.3l-20.1,1.2L52,323.1l-76.5,30.7l-14.8-52.3
					c-1.6,0.3-2.5,0.4-2.5,0.4l17.4,61.3L52,332.5l97.3,11.8l20.1-1.2l84.5-20.3l24.1-5.1c7.7-1.6,12.7-9.3,11-17
					C288.8,300.1,288.7,299.5,288.5,298.9z"/>
				<path class="st6" d="M52,323.1l97.3,11.8l20.1-1.2l84.5-20.3l24.1-5.1c5.1-1.1,8.9-4.8,10.5-9.3c-2.3-6.7-9.4-10.8-16.5-9.3
					l-39.8,8.5c-0.9,0.2-1.7,0.5-2.5,0.8c0,0-21.7,3.9-40.5,1.7c-18.7-2.3-28.3-23-28.3-23l-113.3-2.4c0,0-8.3,6.6-29,13.5
					c-18.4,6.1-49,11.4-57.9,12.9l14.8,52.3L52,323.1z"/>
			</g>
			<path class="st6" d="M121.9,287.9L60,297.6c-5.7,0.9-11.1-3.1-12-8.8l-2-9.1c-0.9-5.7,7.3-13.8,13-14.6l57.9-9.7
				c5.7-0.9,11.1,3.1,12,8.8l1.8,11.7C131.6,281.6,127.7,287,121.9,287.9z"/>
			<path class="st6" d="M172.1,288.6l-54.2-4.5c-6.6-0.5-11.5-6.4-11-13l0.4-4.8c0.5-6.6,6.4-11.5,13-11l54.2,4.5
				c6.6,0.5,11.5,6.4,11,13l-0.4,4.8C184.5,284.2,178.6,289.1,172.1,288.6z"/>
		</g>
		<circle class="st28" cx="182.6" cy="216.1" r="177.1"/>
	</g>
	<g>
		<path class="st4" d="M308.3,23.4l-8.2,2.7c-2.1,0.7-3.6,2.5-3.9,4.7l-5.3,37l57.9,134.1l23.2,11.6L315.7,27.3
			C314.8,24.1,311.4,22.3,308.3,23.4z"/>
		<path class="st23" d="M232.2,110.9l74.9-38.7c5.3-2.6,7.8-8.9,5.5-14.4c-2.3-5.8-8.9-8.6-14.7-6.2L213,86.6
			c-3.8,1.6-6.9,4.8-8.2,9l-0.3,0.9"/>
		<path class="st9" d="M236.5,227.8H74.4c-6.4,0-11.6-5.2-11.6-11.6l0,0h179.5v5.8C242.3,225.2,239.7,227.8,236.5,227.8z"/>
		<path class="st9" d="M351.7,196h-10.3c-2.5,0-4.7,1.6-5.5,4L325,232.6c-0.8,2.4-3,4-5.5,4h-11.3c-3.2,0-5.8,2.6-5.8,5.8
			c0,3.2,2.6,5.8,5.8,5.8h43.4c14.4,0,26.1-11.7,26.1-26.1l0,0C377.8,207.7,366.1,196,351.7,196z"/>
	</g>
</g>
</svg>
