<?xml version="1.0" encoding="utf-8"?>
<!-- Generator: Adobe Illustrator 22.1.0, SVG Export Plug-In . SVG Version: 6.00 Build 0)  -->
<svg version="1.1" id="Слой_1" xmlns="http://www.w3.org/2000/svg" xmlns:xlink="http://www.w3.org/1999/xlink" x="0px" y="0px"
	 viewBox="0 0 465.4 437.5" style="enable-background:new 0 0 465.4 437.5;" xml:space="preserve">
<style type="text/css">
	.st0{display:none;}
	.st1{display:inline;}
	.st2{clip-path:url(#SVGID_2_);}
	.st3{fill:#262626;}
	.st4{fill:#FFAF2D;}
	.st5{fill:#EABE8D;}
	.st6{fill:#F4D0AB;}
	.st7{fill:none;}
	.st8{fill:#FFBA55;}
	.st9{fill:#EE9D29;}
	.st10{display:inline;fill:#1C7F98;}
	.st11{display:inline;fill:#2D6679;}
	.st12{display:inline;fill:#FFFFFF;}
	.st13{display:inline;fill:#C1E3E8;}
	.st14{clip-path:url(#SVGID_4_);}
	.st15{fill:#3A3A3A;}
	.st16{fill:#444343;}
	.st17{fill:#437282;}
	.st18{fill:#FFFFFF;}
	.st19{fill:#2D6679;}
	.st20{fill:#1C7F98;}
	.st21{display:inline;fill:#262626;}
	.st22{clip-path:url(#SVGID_6_);}
	.st23{fill:none;stroke:#000000;stroke-miterlimit:10;}
	.st24{fill:#4D4D4D;}
	.st25{fill:#606060;}
	.st26{fill:#FF9100;}
</style>
<g class="st0">
	<g class="st1">
		<defs>
			<circle id="SVGID_1_" cx="235.5" cy="216" r="177.1"/>
		</defs>
		<use xlink:href="#SVGID_1_"  style="overflow:visible;fill:#FFFFFF;"/>
		<clipPath id="SVGID_2_">
			<use xlink:href="#SVGID_1_"  style="overflow:visible;"/>
		</clipPath>
		<g class="st2">
			<polygon class="st3" points="288.6,278 140.8,278 147.3,96 280.9,96 			"/>
			<path class="st4" d="M239.7,481h-53.3c-24,0-43.6-19.6-43.6-43.6l-10.9-162.3c0-24,19.6-43.6,43.6-43.6h75.1
				c24,0,43.6,19.6,43.6,43.6l-10.9,162.3C283.2,461.4,263.6,481,239.7,481z"/>
			<path class="st5" d="M246.9,235.5c0-1.3-0.2-2.6-0.6-3.9h-66.6c-0.4,1.3-0.6,2.6-0.6,3.9c0,11.8,15.2,21.4,33.9,21.4
				S246.9,247.3,246.9,235.5z"/>
			<path class="st5" d="M194.3,169.1v49.4c0,7.2-5.9,13.1-13.1,13.1h65.7c-7.2,0-13.1-5.9-13.1-13.1v-49.4"/>
			<ellipse class="st6" cx="214" cy="139.6" rx="61.3" ry="77.8"/>
			<g>
				<polygon class="st7" points="280.3,110.3 280.3,110.3 275.3,110.3 275.9,110.3 				"/>
				<path class="st7" d="M147.8,110.3h4.4c0.1,0,0.5,0,0.6,0L147.8,110.3L147.8,110.3z"/>
			</g>
			<path class="st3" d="M241,49c0,0-14.5,66.9-42.4,95.5c-22.4,23-48.3,35.5-48.3,35.5l2.5-98.8L246.9,49"/>
			<path class="st3" d="M280.3,131.2c0,0-44.1,2.8-68.4-6.8c-19.6-7.7-33.7-20.2-33.7-20.2l60.3-18.1l41.4,30.6"/>
			<g>
				<path class="st4" d="M146,97.7v-27c0-33.3,27.2-60.5,60.5-60.5h15.1c33.3,0,60.5,27.2,60.5,60.5v27H146z"/>
				<path class="st8" d="M229.2,97.7v-84c0-7.4-6.1-13.4-13.4-13.4h-3.4c-7.4,0-13.4,6.1-13.4,13.4v84H229.2z"/>
				<path class="st8" d="M283.5,110.3H144.6c-3.2,0-5.8-2.6-5.8-5.8v-1c0-3.2,2.6-5.8,5.8-5.8h138.8c3.2,0,5.8,2.6,5.8,5.8v1
					C289.2,107.7,286.6,110.3,283.5,110.3z"/>
				<path class="st9" d="M281.1,110.3c0,6.2-27.2,11.3-60.5,11.3h-15.1c-33.3,0-60.5-5.1-60.5-11.3H281.1z"/>
			</g>
		</g>
	</g>
	<g class="st1">
		<path class="st4" d="M146.5,97.6V70.5c0-33.4,27.3-60.7,60.7-60.7h15.2c33.4,0,60.7,27.3,60.7,60.7v27.1H146.5z"/>
		<path class="st8" d="M229.9,97.6V13.4c0-7.4-6.1-13.5-13.5-13.5H213c-7.4,0-13.5,6.1-13.5,13.5v84.2H229.9z"/>
		<path class="st8" d="M284.3,110.2H145.1c-3.2,0-5.8-2.6-5.8-5.8v-1.1c0-3.2,2.6-5.8,5.8-5.8h139.2c3.2,0,5.8,2.6,5.8,5.8v1.1
			C290.1,107.6,287.5,110.2,284.3,110.2z"/>
		<path class="st9" d="M282,110.2c0,6.2-27.3,11.3-60.7,11.3h-15.2c-33.4,0-60.7-5.1-60.7-11.3H282z"/>
	</g>
	<path class="st10" d="M325.6,201.2L237,239.1c0,0,0,63.4,0,88.3c0,24.8,4,56.7,88.5,99.2c84.5-42.5,88.5-74.3,88.5-99.2
		c0-24.8,0-88.3,0-88.3L325.6,201.2z"/>
	<path class="st11" d="M414.1,239.1c0,0,0,63.4,0,88.3c0,24.8-4,56.7-88.5,99.2V201.2L414.1,239.1z"/>
	<polygon class="st12" points="315.2,356.3 271.4,313.2 288.4,295.8 315.2,322.1 362.7,275.4 379.8,292.7 	"/>
	<polygon class="st13" points="379.8,292.7 325.6,346.1 325.6,311.9 362.7,275.4 	"/>
	<path class="st12" d="M325.6,438.1l-4.6-2.3c-39.4-19.8-65.5-39.3-79.8-59.5c-12.7-18-14.5-34.2-14.5-48.9v-95.1l98.9-42.3
		l98.9,42.3v95.1c0,14.8-1.8,30.9-14.5,48.9c-14.3,20.2-40.4,39.7-79.8,59.5L325.6,438.1z M247.4,245.9v81.4
		c0,18.9,0,47.2,78.2,87.6c78.2-40.4,78.2-68.7,78.2-87.6v-81.4l-78.2-33.5L247.4,245.9z"/>
	<path class="st13" d="M325.6,189.9v22.5l78.2,33.5v81.4c0,18.9,0,47.2-78.2,87.6v23.2l4.7-2.3c39.4-19.8,65.5-39.3,79.8-59.5
		c12.7-18,14.5-34.2,14.5-48.9v-95.1L325.6,189.9z"/>
</g>
<g class="st0">
	<g class="st1">
		<defs>
			<circle id="SVGID_3_" cx="247.1" cy="209" r="177.1"/>
		</defs>
		<use xlink:href="#SVGID_3_"  style="overflow:visible;fill:#FFFFFF;"/>
		<clipPath id="SVGID_4_">
			<use xlink:href="#SVGID_3_"  style="overflow:visible;"/>
		</clipPath>
		<g class="st14">
			<path class="st3" d="M429.5,303.8H57.8c-2.2,0-4-1.8-4-4v-21.2c0-2.2,1.8-4,4-4h371.7c2.2,0,4,1.8,4,4v21.2
				C433.5,302,431.7,303.8,429.5,303.8z"/>
			<rect x="78.2" y="303.8" class="st15" width="361.5" height="136.2"/>
			<rect x="78.2" y="324.3" class="st16" width="361.5" height="115.6"/>
		</g>
	</g>
	<g class="st1">
		<path class="st9" d="M315.3,192.5c0,0-4.3-25.1,3.7-53.6s32.1-91.3-4.8-119.3S256.9,7.1,254.5,8.5c-2.5,1.4-3.1,3.1-3.1,3.1
			s-11.1-6.6-21.2,2.6c-10.1,9.1-28.9,22.3-27,66.2c1.8,43.9,16.3,75,28.9,85c12.6,10,12.6,10,12.6,10"/>
		<g>
			<path class="st5" d="M284.4,145c-0.9-1.9-1.5-4.2-2-6.7v-27.1h-27.9v27.1c-0.4,2.4-1.1,4.5-1.9,6.4c4.8,3.8,10.3,6.2,16.1,6.2
				C274.4,150.9,279.7,148.6,284.4,145z"/>
			<g>
				<path class="st6" d="M252.7,144.7c-6,14-20.9,14.4-28.1,17.5c-14.7,6.3-22.1,25.8-31.1,44.3c-4.8,9.7-18.4,26.2-24.9,34.3
					c-6.5,8.1-6,19.9-6,19.9l2.3,13.6c0,0,28.5-26.7,38.7-39.8c10.2-13.1,21.7-30.7,21.7-30.7l22.1,18.5l4.1,54.2l16.6,1.1V150.9
					C262.6,150.7,257.3,148.4,252.7,144.7z"/>
				<path class="st5" d="M334.5,206.5c-5.1-19.9-7.4-37.9-22.1-44.3c-7.1-3.1-21.9-3.5-28-17.3c-4.7,3.7-10,5.9-15.7,5.9
					c-0.2,0-0.4,0-0.6,0v126.8l68.2,4.7C336.4,282.4,339.6,226.4,334.5,206.5z"/>
			</g>
		</g>
		<g>
			<g>
				<g>
					<path class="st17" d="M98.3,140.1H82.7c-9.3,0-16.9,7.5-16.9,16.6v101.7c0,9.1,7.6,16.6,16.9,16.6H166
						c9.3,0,16.9-7.5,16.9-16.6V156.7c0-9.1-7.6-16.6-16.9-16.6h-14"/>
					<polyline class="st17" points="152,140.1 152,136.3 98.3,136.3 98.3,140.1 					"/>
				</g>
			</g>
			<polyline class="st18" points="98.3,154.6 83.3,154.6 83.3,257.7 165.4,257.7 165.4,154.6 152,154.6 			"/>
			<rect x="98.3" y="135.6" class="st3" width="53.6" height="22.1"/>
			<polygon class="st17" points="141,241.8 126.5,223.3 133.7,217.9 138.9,224.5 149.7,200.9 158,204.6 			"/>
		</g>
		<path class="st19" d="M268.1,204.2c0,0,10.6,0,24.4-8.5c13.8-8.5,14.7-35.1,14.7-35.1l5.1,1.4c0,0-3.2,14.7-0.5,34.4
			c2.8,19.7,11.7,31.5,10.1,44.5c-1.8,15.9-14.7,36.8-14.7,36.8h-39.2"/>
		<path class="st20" d="M268.8,204.2c0,0-10.6,0-24.4-8.5c-13.8-8.5-14.7-35.1-14.7-35.1l-5.1,1.4c0,0,3.2,14.7,0.5,34.4
			s-11.7,31.5-10.1,44.5c1.8,15.9,14.7,36.8,14.7,36.8h39.2"/>
		<g>
			<path class="st6" d="M268.5,44.5c-19.4,0-35.2,0-35.2,46.1c0,19.8,15.8,46.1,35.2,46.1c0.1,0,0.2,0,0.3,0V44.5
				C268.7,44.5,268.6,44.5,268.5,44.5z"/>
			<path class="st5" d="M303.6,90.6c0-45.8-15.6-46.1-34.9-46.1v92.1C288.1,136.3,303.6,109.6,303.6,90.6z"/>
		</g>
		<path class="st9" d="M303.6,59.4h-71c-6.6,0-12-5.4-12-12V35.6c0-6.6,5.4-12,12-12h71c6.6,0,12,5.4,12,12v11.8
			C315.6,54,310.2,59.4,303.6,59.4z"/>
		<path class="st6" d="M97,129.3c0,0,6.7-5.6,11.1-7.7c4.3-2.1,7.4,4.5,9.7,7.7c2.3,3.2,8.8,12.6,2.8,16.7c-6,4.1-15.7,7.7-20.7,3.6
			c-5.1-4.1-10.1-10.3-8.8-13.5S97,129.3,97,129.3z"/>
	</g>
	<path class="st21" d="M61.7,303.8h297c2.2,0,4-1.8,4-4v-21.2c0-2.2-1.8-4-4-4h-297c-2.2,0-4,1.8-4,4v21.2
		C57.7,302,59.5,303.8,61.7,303.8z"/>
	<g class="st1">
		<g>
			<path d="M312.9,75H310c-0.8-2-1.9-3.4-2.8-4.3c-2.5-2.5-5.2-3.1-6-3.3c-2.4-0.5-6.3-0.6-10.2-0.5c0,0,0,0,0,0c0,0,0,0,0,0
				l-43.6,0c0,0,0,0,0,0c-4.2-0.1-8.4,0.1-11,0.5c-0.8,0.1-3.6,0.8-6,3.3c-1,1-2,2.4-2.8,4.3h-2.9c-1.5,0-2.7,1.2-2.7,2.7
				s1.2,2.7,2.7,2.7h1.7c0,0.4,0,0.7,0,1.1c0,11.8,8,18.1,15.3,18.9c0.8,0.1,1.5,0.1,2.3,0.1c5,0,9.9-1.8,13.7-5.1
				c3-2.6,6.4-7.2,7.8-15h6.5c1.4,7.8,4.8,12.4,7.8,15c3.8,3.3,8.7,5.1,13.7,5.1c0.8,0,1.5,0,2.3-0.1c7.4-0.8,15.3-7.1,15.3-18.9
				c0-0.4,0-0.7,0-1.1h1.7c1.5,0,2.7-1.2,2.7-2.7C315.6,76.3,314.4,75,312.9,75z"/>
		</g>
	</g>
</g>
<g>
	<g>
		<defs>
			<circle id="SVGID_5_" cx="246.3" cy="213.6" r="177.1"/>
		</defs>
		<use xlink:href="#SVGID_5_"  style="overflow:visible;fill:#FFFFFF;"/>
		<clipPath id="SVGID_6_">
			<use xlink:href="#SVGID_5_"  style="overflow:visible;"/>
		</clipPath>
		<g class="st22">
			<path class="st4" d="M358.9,257.6c9.1-12.7,19.6-24.5,31.3-35c-8.6-8.9-18-17.8-27.6-25.5c-31-24.7-68.3-26.4-101-26.4
				c-32.7,0-47.2,17.4-60.3,26.7c-13.6,9.7-19.7,11.9-27.1,13.7c-1.4,0.3-2.9,0.7-4.5,0.9c5.5,16.7,8.3,34.4,8.3,52
				c10.1-0.2,16.3-2.3,16.3-2.3s-3.3,16.2-7.6,50.5c-4.3,34.3,2.6,87.1,2.6,87.1l50.8,7.6l146.5-32.3c0,0-6.6-49.2-13.9-77.5
				c-3.1-12.2-12.8-36.2-14-39.3"/>
			<path class="st9" d="M386.7,374.6c0,0-6.6-49.2-13.9-77.5c-3.1-12.2-12.8-36.2-14-39.3l0,0c0,0-14.7-33.2-20.6-42.9
				c-5.9-9.7-20.5-31.5-20.5-31.5l-17.2,15.2c0,0,16.7,61.6,17.8,90.2c2,49-26.2,114.8-26.2,114.8"/>
		</g>
	</g>
	<g>
		<path class="st6" d="M260.3,106.5c0,0,0.4,10.1,0.4,15.4c0,5.3-4,10.1-4,10.1s-2.9,8.4,0.6,16.3c3.5,7.9,8.2,8.3,8.2,8.3l10.1-8.8
			l11,4.4h0.4v-45.7H260.3z"/>
		<path class="st5" d="M317.5,132c0,0-4-4.8-4-10.1c0-5.3,0.4-15.4,0.4-15.4h-26.9v45.7h0.5l11-4.4l10.1,8.8c0,0,6.4-0.9,9.9-8.8
			C322.1,139.9,317.5,132,317.5,132z"/>
	</g>
	<path class="st3" d="M304.7,118.5l-5.7-0.8c-0.2,0-0.3,0-0.5,0c0,0,0,0,0,0h-2.9c-1.5,0-2.7,1.2-2.7,2.7c0,1.5,1.2,2.7,2.7,2.7h2.9
		c0,0,0,0,0,0l5.5,0.7c1.5,0.2,2.9-0.9,3.1-2.4C307.2,120.1,306.2,118.7,304.7,118.5z"/>
	<path class="st3" d="M268.9,118.5l5.7-0.8c0.2,0,0.3,0,0.5,0c0,0,0,0,0,0h2.9c1.5,0,2.7,1.2,2.7,2.7c0,1.5-1.2,2.7-2.7,2.7h-2.9
		c0,0,0,0,0,0l-5.5,0.7c-1.5,0.2-2.9-0.9-3.1-2.4C266.3,120.1,267.4,118.7,268.9,118.5z"/>
	<g>
		<path class="st7" d="M358.8,257.9c0.1-0.1,0.1-0.2,0.2-0.2c-0.2-0.1-0.3-0.1-0.3-0.1S358.7,257.6,358.8,257.9z"/>
		<path class="st6" d="M152.8,212.6c-8.9-1-27.1-8.2-36-14.8c-8.9-6.6-12.2-13.9-10.6-16.5c1.6-2.6,0.3-5.3,0.3-5.3
			s-5.6-9.2-6.9-10.2c-1.3-1-5.6,3.3-5.6,3.3s-6.6-5.6-9.2-4.9c-2.6,0.7-12.9,6.2-12.9,6.2L68.6,183l14.2,15.2l8.6,0.7
			c0,0,14.5,38.3,46.2,55.1c15.9,8.5,30.2,10.4,40.5,10.3c0-17.6-2.8-35.3-8.3-52C165.1,212.9,159.3,213.4,152.8,212.6z"/>
		<path class="st6" d="M442.1,292.2l-2.3-2c0,0-5.3-10.9-11.5-21.1c-4.3-7-19.1-26.8-38-46.4c-11.6,10.5-22.1,22.3-31.3,35
			c1.9,0.6,13.2,4.4,29.7,13.8c18.1,10.2,27.4,24.1,27.4,24.1l-3.6,6.3l3.6,18.8l15.5,8.2l20.1-14.2L442.1,292.2z"/>
		<path class="st9" d="M390.2,222.6c-8.6-8.9-18-17.8-27.6-25.5c-16.8-13.4-35.5-20.1-54.4-23.3c-0.6,1.6-1.2,3.2-1.7,4.8
			c-0.7,2.2,0.3,1.1,1.1,3.4c17.5,5.9,31.2,16.1,45.7,27.5c10.3,8.1,17.2,17.7,24.1,25.6C381.6,230.7,385.8,226.6,390.2,222.6z"/>
	</g>
	<g>
		<g>
			<path class="st24" d="M80,212.7l-17.9-28.2l-30.2-14.3c-0.6,0.2-1,0.6-1.4,1.1l-12.7,14.4l48.6,43l12.7-14.4
				C79.5,213.8,79.8,213.3,80,212.7z"/>
		</g>
		<path class="st25" d="M66.4,228.6l12.7-14.4c0.4-0.5,0.7-1,0.9-1.6l-17.9-28.2l-20,22.6L66.4,228.6z"/>
		<path class="st8" d="M193.5,148.3l-17.8-15.7c1.1-1.1,2.2-2.1,3.2-3.3c1.7-1.9,1.5-4.8-0.4-6.5l-69.5-61.4
			c-1.9-1.7-4.8-1.5-6.5,0.4c-1.1,1.2-1.9,2.4-2.9,3.6L81.9,49.7C80,48,77,48.1,75.3,50.1l-7.8,8.8c-17.1,19.4-15.5,48.9,2.7,66.8
			c-0.9,9,0.3,17.3,3.6,24.3c-15.8,16.1-35.8,19.4-40.2,19.8c-0.6,0-1.2,0.1-1.7,0.4L80,212.7c0.2-0.5,0.3-1.2,0.2-1.8
			c-0.2-4.5,0.5-24.7,14.7-42.4c7.4,2.5,15.8,2.6,24.6,0.6c20,15.9,49.5,13.9,66.6-5.5l7.8-8.8C195.6,153,195.4,150,193.5,148.3
			L193.5,148.3z M74.5,65l4.7-5.3l14.6,12.9c-9.2,12.3-17.5,26.6-21.4,41.6C61.9,99.6,62.1,79,74.5,65z M179.2,157.5
			c-12.4,14-32.8,16.8-48.5,8.2c14.3-5.7,27.5-15.6,38.6-26.4l14.6,12.9L179.2,157.5z"/>
		<path class="st4" d="M193.5,148.3l-17.8-15.7c1.1-1.1,2.2-2.1,3.2-3.3c1.7-1.9,1.5-4.8-0.4-6.5L143.8,92L56,191.5l24,21.2
			c0.2-0.5,0.3-1.2,0.2-1.8c-0.2-4.5,0.5-24.7,14.7-42.4c7.4,2.5,15.8,2.6,24.6,0.6c20,15.9,49.5,13.9,66.6-5.5l7.8-8.8
			C195.6,153,195.4,150,193.5,148.3L193.5,148.3z M179.2,157.5c-12.4,14-32.8,16.8-48.5,8.2c14.3-5.7,27.5-15.6,38.6-26.4l14.6,12.9
			L179.2,157.5z"/>
		<g id="Trophy_1_">
			<g>
				<path class="st26" d="M110.3,141.1l-3-7.8l-8.1-2c-1.7-0.4-3-1.8-3.4-3.5c-0.4-1.7,0.2-3.5,1.6-4.6l6.5-5.3l-0.6-8.3
					c-0.1-1.8,0.8-3.5,2.3-4.3c1.5-0.9,3.4-0.9,4.9,0.1l7,4.5l7.7-3.1c3.3-1.3,7.1,2.1,6.2,5.5l-2.1,8.1l5.4,6.4
					c1.1,1.3,1.4,3.2,0.7,4.8c-0.7,1.6-2.2,2.7-4,2.8l-8.3,0.5l-4.4,7.1c-0.9,1.5-2.6,2.3-4.4,2.2
					C112.5,143.9,110.9,142.8,110.3,141.1L110.3,141.1z"/>
			</g>
		</g>
		<path class="st26" d="M110.3,141.1c0.6,1.6,2.1,2.8,3.9,2.9c1.7,0.2,3.4-0.7,4.4-2.2l4.4-7.1l8.3-0.5c1.8-0.1,3.3-1.2,4-2.8
			c0.7-1.6,0.4-3.5-0.7-4.8l-5.4-6.4l2.1-8.1c0.5-1.7-0.3-3.4-1.5-4.5l-22.6,25.5L110.3,141.1z"/>
		<g>
			<path class="st3" d="M66.8,235.2l-55.6-49.1c-1.9-1.7-2.1-4.6-0.4-6.5c1.7-1.9,4.6-2.1,6.5-0.4L73,228.2c1.9,1.7,2.1,4.6,0.4,6.5
				C71.7,236.7,68.7,236.9,66.8,235.2z"/>
		</g>
		<path class="st3" d="M73,228.2l-27.8-24.6l-6.1,6.9l27.8,24.6c1.9,1.7,4.8,1.5,6.5-0.4C75.1,232.9,74.9,229.9,73,228.2z"/>
	</g>
	<path class="st3" d="M288,211.2c0,0-15.4-1.3-22.9-4.4c-7.5-3.1-9.2-6.2-9.2-6.2s-4.8-12.3-11.4-21.1c-6.6-8.8-8.4-17.2-8.4-17.2
		s10.6-7.9,12.3-21.6c1.8-13.6,1.8-13.2,1.8-13.2s4.8-2.6,6.6-9.7s3.5-11.4,3.5-11.4s0.4,10.1,0.4,15.4s-4,10.1-4,10.1
		s-1.3,6.6,2.2,14.5c3.5,7.9,6.6,10.1,6.6,10.1l10.1-8.8l11,4.4h0.9l11-4.4l10.1,8.8c0,0,3.1-2.2,6.6-10.1
		c3.5-7.9,2.2-14.5,2.2-14.5s-4-4.8-4-10.1s0.4-15.4,0.4-15.4s1.8,4.4,3.5,11.4s6.6,9.7,6.6,9.7s0-0.4,1.8,13.2s12.3,21.6,12.3,21.6
		s-1.8,8.4-8.4,17.2c-6.6,8.8-11.4,21.1-11.4,21.1s-1.8,3.1-9.2,6.2c-7.5,3.1-22.9,4.4-22.9,4.4"/>
	<g>
		<path class="st9" d="M314.9,108.2c0,2.5-11.1,4.6-24.7,4.6H284c-13.6,0-24.7-2.1-24.7-4.6H314.9z"/>
		<path class="st8" d="M316.8,108.2h-59.3c-0.5,0-1-0.4-1-1v-3.1c0-0.5,0.4-1,1-1h59.3c0.5,0,1,0.4,1,1v3.1
			C317.7,107.8,317.3,108.2,316.8,108.2z"/>
		<path class="st4" d="M259.4,103.1V99c0-13.6,11.1-24.7,24.7-24.7h6.2c13.6,0,24.7,11.1,24.7,24.7v4.1H259.4z"/>
		<path class="st8" d="M293.3,103.1V75.8c0-3-2.5-5.5-5.5-5.5h-1.4c-3,0-5.5,2.5-5.5,5.5v27.3H293.3z"/>
	</g>
</g>
</svg>
