<?xml version="1.0" encoding="utf-8"?>
<!-- Generator: Adobe Illustrator 22.1.0, SVG Export Plug-In . SVG Version: 6.00 Build 0)  -->
<svg version="1.1" id="Слой_1" xmlns="http://www.w3.org/2000/svg" xmlns:xlink="http://www.w3.org/1999/xlink" x="0px" y="0px"
	 viewBox="0 0 380.4 437.5" style="enable-background:new 0 0 380.4 437.5;" xml:space="preserve">
<style type="text/css">
	.st0{clip-path:url(#SVGID_2_);}
	.st1{fill:#262626;}
	.st2{fill:#3A3A3A;}
	.st3{fill:#444343;}
	.st4{fill:#EE9D29;}
	.st5{fill:#EABE8D;}
	.st6{fill:#F4D0AB;}
	.st7{fill:#437282;}
	.st8{fill:#FFFFFF;}
	.st9{fill:#2D6679;}
	.st10{fill:#1C7F98;}
</style>
<g>
	<g>
		<defs>
			<circle id="SVGID_1_" cx="195.1" cy="215" r="177.1"/>
		</defs>
		<use xlink:href="#SVGID_1_"  style="overflow:visible;fill:#FFFFFF;"/>
		<clipPath id="SVGID_2_">
			<use xlink:href="#SVGID_1_"  style="overflow:visible;"/>
		</clipPath>
		<g class="st0">
			<path class="st1" d="M377.5,309.8H5.8c-2.2,0-4-1.8-4-4v-21.2c0-2.2,1.8-4,4-4h371.7c2.2,0,4,1.8,4,4v21.2
				C381.5,308,379.7,309.8,377.5,309.8z"/>
			<rect x="26.2" y="309.8" class="st2" width="361.5" height="136.2"/>
			<rect x="26.2" y="330.3" class="st3" width="361.5" height="115.6"/>
		</g>
	</g>
	<g>
		<path class="st4" d="M263.3,198.5c0,0-4.3-25.1,3.7-53.6s32.1-91.3-4.8-119.3s-57.2-12.6-59.7-11.1s-3.1,3.1-3.1,3.1
			s-11.1-6.6-21.2,2.6c-10.1,9.1-28.9,22.3-27,66.2c1.8,43.9,16.3,75,28.9,85c12.6,10,12.6,10,12.6,10"/>
		<g>
			<path class="st5" d="M232.4,151c-0.9-1.9-1.5-4.2-2-6.7v-27.1h-27.9v27.1c-0.4,2.4-1.1,4.5-1.9,6.4c4.8,3.8,10.3,6.2,16.1,6.2
				C222.4,156.9,227.7,154.6,232.4,151z"/>
			<g>
				<path class="st6" d="M200.7,150.7c-6,14-20.9,14.4-28.1,17.5c-14.7,6.3-22.1,25.8-31.1,44.3c-4.8,9.7-18.4,26.2-24.9,34.3
					c-6.5,8.1-6,19.9-6,19.9l2.3,13.6c0,0,28.5-26.7,38.7-39.8c10.2-13.1,21.7-30.7,21.7-30.7l22.1,18.5l4.1,54.2l16.6,1.1V156.9
					C210.6,156.7,205.3,154.4,200.7,150.7z"/>
				<path class="st5" d="M282.5,212.5c-5.1-19.9-7.4-37.9-22.1-44.3c-7.1-3.1-21.9-3.5-28-17.3c-4.7,3.7-10,5.9-15.7,5.9
					c-0.2,0-0.4,0-0.6,0v126.8l68.2,4.7C284.4,288.4,287.6,232.4,282.5,212.5z"/>
			</g>
		</g>
		<g>
			<g>
				<g>
					<path class="st7" d="M46.3,146.1H30.7c-9.3,0-16.9,7.5-16.9,16.6v101.7c0,9.1,7.6,16.6,16.9,16.6H114c9.3,0,16.9-7.5,16.9-16.6
						V162.7c0-9.1-7.6-16.6-16.9-16.6h-14"/>
					<polyline class="st7" points="100,146.1 100,142.3 46.3,142.3 46.3,146.1 					"/>
				</g>
			</g>
			<polyline class="st8" points="46.3,160.6 31.3,160.6 31.3,263.7 113.4,263.7 113.4,160.6 100,160.6 			"/>
			<rect x="46.3" y="141.6" class="st1" width="53.6" height="22.1"/>
			<polygon class="st7" points="89,247.8 74.5,229.3 81.7,223.9 86.9,230.5 97.7,206.9 106,210.6 			"/>
		</g>
		<path class="st9" d="M216.1,210.2c0,0,10.6,0,24.4-8.5c13.8-8.5,14.7-35.1,14.7-35.1l5.1,1.4c0,0-3.2,14.7-0.5,34.4
			c2.8,19.7,11.7,31.5,10.1,44.5c-1.8,15.9-14.7,36.8-14.7,36.8h-39.2"/>
		<path class="st10" d="M216.8,210.2c0,0-10.6,0-24.4-8.5c-13.8-8.5-14.7-35.1-14.7-35.1l-5.1,1.4c0,0,3.2,14.7,0.5,34.4
			s-11.7,31.5-10.1,44.5c1.8,15.9,14.7,36.8,14.7,36.8h39.2"/>
		<g>
			<path class="st6" d="M216.5,50.5c-19.4,0-35.2,0-35.2,46.1c0,19.8,15.8,46.1,35.2,46.1c0.1,0,0.2,0,0.3,0V50.5
				C216.7,50.5,216.6,50.5,216.5,50.5z"/>
			<path class="st5" d="M251.6,96.6c0-45.8-15.6-46.1-34.9-46.1v92.1C236.1,142.3,251.6,115.6,251.6,96.6z"/>
		</g>
		<path class="st4" d="M251.6,65.4h-71c-6.6,0-12-5.4-12-12V41.6c0-6.6,5.4-12,12-12h71c6.6,0,12,5.4,12,12v11.8
			C263.6,60,258.2,65.4,251.6,65.4z"/>
		<path class="st6" d="M45,135.3c0,0,6.7-5.6,11.1-7.7c4.3-2.1,7.4,4.5,9.7,7.7c2.3,3.2,8.8,12.6,2.8,16.7s-15.7,7.7-20.7,3.6
			s-10.1-10.3-8.8-13.5S45,135.3,45,135.3z"/>
	</g>
	<path class="st1" d="M9.7,309.8h297c2.2,0,4-1.8,4-4v-21.2c0-2.2-1.8-4-4-4H9.7c-2.2,0-4,1.8-4,4v21.2C5.7,308,7.5,309.8,9.7,309.8
		z"/>
	<g>
		<g>
			<path d="M260.9,81H258c-0.8-2-1.9-3.4-2.8-4.3c-2.5-2.5-5.2-3.1-6-3.3c-2.4-0.5-6.3-0.6-10.2-0.5c0,0,0,0,0,0c0,0,0,0,0,0
				l-43.6,0c0,0,0,0,0,0c-4.2-0.1-8.4,0.1-11,0.5c-0.8,0.1-3.6,0.8-6,3.3c-1,1-2,2.4-2.8,4.3h-2.9c-1.5,0-2.7,1.2-2.7,2.7
				s1.2,2.7,2.7,2.7h1.7c0,0.4,0,0.7,0,1.1c0,11.8,8,18.1,15.3,18.9c0.8,0.1,1.5,0.1,2.3,0.1c5,0,9.9-1.8,13.7-5.1
				c3-2.6,6.4-7.2,7.8-15h6.5c1.4,7.8,4.8,12.4,7.8,15c3.8,3.3,8.7,5.1,13.7,5.1c0.8,0,1.5,0,2.3-0.1c7.4-0.8,15.3-7.1,15.3-18.9
				c0-0.4,0-0.7,0-1.1h1.7c1.5,0,2.7-1.2,2.7-2.7C263.6,82.3,262.4,81,260.9,81z"/>
		</g>
	</g>
</g>
</svg>
